G75*
G70*
%OFA0B0*%
%FSLAX24Y24*%
%IPPOS*%
%LPD*%
%AMOC8*
5,1,8,0,0,1.08239X$1,22.5*
%
%ADD10R,0.0394X0.0433*%
%ADD11R,0.0433X0.0394*%
%ADD12R,0.0591X0.0591*%
%ADD13R,0.0591X0.0110*%
%ADD14R,0.0110X0.0591*%
D10*
X005261Y012527D03*
X005261Y013196D03*
X005527Y014761D03*
X006196Y014761D03*
D11*
X003361Y002727D03*
X003361Y003396D03*
X003761Y014087D03*
X003761Y014756D03*
X004327Y014761D03*
X004996Y014761D03*
D12*
X004472Y014161D03*
X005850Y014161D03*
D13*
X006854Y010544D03*
X006854Y010347D03*
X006854Y010150D03*
X006854Y009953D03*
X006854Y009757D03*
X006854Y009560D03*
X006854Y009363D03*
X006854Y009166D03*
X006854Y008969D03*
X006854Y008772D03*
X006854Y008575D03*
X006854Y008379D03*
X003468Y008379D03*
X003468Y008575D03*
X003468Y008772D03*
X003468Y008969D03*
X003468Y009166D03*
X003468Y009363D03*
X003468Y009560D03*
X003468Y009757D03*
X003468Y009953D03*
X003468Y010150D03*
X003468Y010347D03*
X003468Y010544D03*
D14*
X004079Y011154D03*
X004275Y011154D03*
X004472Y011154D03*
X004669Y011154D03*
X004866Y011154D03*
X005063Y011154D03*
X005260Y011154D03*
X005457Y011154D03*
X005653Y011154D03*
X005850Y011154D03*
X006047Y011154D03*
X006244Y011154D03*
X006244Y007768D03*
X006047Y007768D03*
X005850Y007768D03*
X005653Y007768D03*
X005457Y007768D03*
X005260Y007768D03*
X005063Y007768D03*
X004866Y007768D03*
X004669Y007768D03*
X004472Y007768D03*
X004275Y007768D03*
X004079Y007768D03*
M02*
