G75*
G70*
%OFA0B0*%
%FSLAX24Y24*%
%IPPOS*%
%LPD*%
%AMOC8*
5,1,8,0,0,1.08239X$1,22.5*
%
%ADD10C,0.0480*%
%ADD11R,0.0394X0.0433*%
%ADD12R,0.0433X0.0394*%
%ADD13C,0.0472*%
%ADD14R,0.0600X0.0600*%
%ADD15OC8,0.0600*%
%ADD16R,0.0591X0.0591*%
%ADD17R,0.0591X0.0110*%
%ADD18R,0.0110X0.0591*%
%ADD19R,0.0886X0.0886*%
%ADD20R,0.0540X0.0540*%
%ADD21C,0.0540*%
%ADD22C,0.0100*%
%ADD23C,0.0290*%
%ADD24C,0.0337*%
D10*
X002961Y005961D03*
X002961Y006961D03*
D11*
X005261Y012527D03*
X005261Y013196D03*
X005527Y014761D03*
X006196Y014761D03*
D12*
X004996Y014761D03*
X004327Y014761D03*
X003761Y014756D03*
X003761Y014087D03*
X003361Y003396D03*
X003361Y002727D03*
D13*
X005161Y003061D03*
X005161Y005061D03*
X005161Y017361D03*
X004374Y017361D03*
X005949Y017361D03*
D14*
X009161Y018461D03*
X001161Y018461D03*
X007661Y001461D03*
D15*
X001161Y001461D03*
X001161Y002461D03*
X001161Y003461D03*
X001161Y004461D03*
X001161Y005461D03*
X001161Y006461D03*
X001161Y007461D03*
X001161Y008461D03*
X001161Y009461D03*
X001161Y010461D03*
X001161Y011461D03*
X001161Y012461D03*
X001161Y013461D03*
X001161Y014461D03*
X001161Y015461D03*
X001161Y016461D03*
X001161Y017461D03*
X009161Y017461D03*
X009161Y016461D03*
X009161Y015461D03*
X009161Y014461D03*
X009161Y013461D03*
X009161Y012461D03*
X009161Y011461D03*
X009161Y010461D03*
X009161Y009461D03*
X009161Y008461D03*
X009161Y007461D03*
X009161Y006461D03*
X009161Y005461D03*
X009161Y004461D03*
X009161Y003461D03*
X009161Y002461D03*
X009161Y001461D03*
X006661Y001461D03*
X005661Y001461D03*
X004661Y001461D03*
X003661Y001461D03*
X002661Y001461D03*
D16*
X004472Y014161D03*
X005850Y014161D03*
D17*
X006854Y010544D03*
X006854Y010347D03*
X006854Y010150D03*
X006854Y009953D03*
X006854Y009757D03*
X006854Y009560D03*
X006854Y009363D03*
X006854Y009166D03*
X006854Y008969D03*
X006854Y008772D03*
X006854Y008575D03*
X006854Y008379D03*
X003468Y008379D03*
X003468Y008575D03*
X003468Y008772D03*
X003468Y008969D03*
X003468Y009166D03*
X003468Y009363D03*
X003468Y009560D03*
X003468Y009757D03*
X003468Y009953D03*
X003468Y010150D03*
X003468Y010347D03*
X003468Y010544D03*
D18*
X004079Y011154D03*
X004275Y011154D03*
X004472Y011154D03*
X004669Y011154D03*
X004866Y011154D03*
X005063Y011154D03*
X005260Y011154D03*
X005457Y011154D03*
X005653Y011154D03*
X005850Y011154D03*
X006047Y011154D03*
X006244Y011154D03*
X006244Y007768D03*
X006047Y007768D03*
X005850Y007768D03*
X005653Y007768D03*
X005457Y007768D03*
X005260Y007768D03*
X005063Y007768D03*
X004866Y007768D03*
X004669Y007768D03*
X004472Y007768D03*
X004275Y007768D03*
X004079Y007768D03*
D19*
X003547Y017361D03*
X006775Y017361D03*
D20*
X007161Y007549D03*
D21*
X007161Y006761D03*
X007161Y005974D03*
D22*
X006961Y006361D02*
X008261Y006361D01*
X009161Y005461D01*
X009161Y004461D02*
X008061Y004461D01*
X006061Y006461D01*
X006047Y006875D01*
X006047Y006975D01*
X006047Y007768D01*
X005850Y007768D02*
X005850Y006772D01*
X005850Y006272D01*
X008661Y003461D01*
X009161Y003461D01*
X009161Y002461D02*
X005653Y005969D01*
X005653Y007768D01*
X005260Y007768D02*
X005261Y008261D01*
X005261Y008461D01*
X005961Y009161D01*
X006363Y009560D01*
X006854Y009560D01*
X006854Y009757D02*
X008866Y009757D01*
X009161Y009461D01*
X008653Y009953D02*
X009161Y010461D01*
X008653Y009953D02*
X006854Y009953D01*
X006854Y010150D02*
X007350Y010150D01*
X008661Y011461D01*
X009161Y011461D01*
X008561Y011661D02*
X008561Y011861D01*
X009161Y012461D01*
X008361Y012661D02*
X009161Y013461D01*
X009161Y014461D02*
X006244Y011644D01*
X006244Y011154D01*
X006047Y011154D02*
X006047Y011747D01*
X007561Y013261D01*
X007561Y013861D01*
X009161Y015461D01*
X009161Y016461D02*
X007261Y014561D01*
X007261Y013261D01*
X005850Y011850D01*
X005850Y011154D01*
X005653Y011154D02*
X005653Y010069D01*
X005761Y009961D01*
X005261Y010461D01*
X005261Y010761D01*
X005261Y011154D01*
X005260Y011154D01*
X005260Y011625D01*
X005261Y012527D01*
X005461Y011761D02*
X006961Y013261D01*
X006961Y015261D01*
X009161Y017461D01*
X009161Y018461D02*
X006261Y018461D01*
X005161Y017361D01*
X004996Y017196D01*
X004996Y014761D01*
X004996Y013696D01*
X004961Y013661D01*
X004866Y013566D01*
X004866Y011154D01*
X005061Y011153D02*
X005063Y011154D01*
X005061Y011153D02*
X005061Y010061D01*
X005061Y009661D01*
X004763Y009363D01*
X003468Y009363D01*
X003468Y009560D02*
X004360Y009560D01*
X004561Y009761D01*
X004511Y010311D02*
X004511Y010461D01*
X004511Y010311D02*
X003957Y009757D01*
X003468Y009757D01*
X003467Y009561D02*
X003468Y009560D01*
X003470Y009561D01*
X003468Y009166D02*
X002766Y009166D01*
X001161Y007561D01*
X001161Y007461D01*
X002061Y007461D02*
X001161Y006461D01*
X001161Y005461D02*
X002261Y006561D01*
X002261Y008061D01*
X002972Y008772D01*
X003468Y008772D01*
X003468Y008575D02*
X003075Y008575D01*
X002461Y007961D01*
X002461Y006461D01*
X002961Y005961D01*
X002961Y006961D02*
X002961Y008161D01*
X003179Y008379D01*
X003468Y008379D01*
X003468Y008969D02*
X002869Y008969D01*
X002061Y008161D01*
X002061Y007461D01*
X001161Y008461D02*
X001861Y009161D01*
X001861Y009661D01*
X002350Y010150D01*
X003468Y010150D01*
X003468Y010347D02*
X002047Y010347D01*
X001161Y009461D01*
X001161Y010461D02*
X001244Y010544D01*
X003468Y010544D01*
X004061Y011154D02*
X004061Y011211D01*
X004061Y011171D01*
X004061Y011154D02*
X004079Y011154D01*
X004061Y011211D02*
X004061Y011461D01*
X003861Y011661D01*
X001361Y011661D01*
X001161Y011461D01*
X001244Y010544D02*
X001161Y010461D01*
X001161Y012461D02*
X003361Y012461D01*
X004275Y011547D01*
X004275Y011154D01*
X004472Y011154D02*
X004472Y011650D01*
X002661Y013461D01*
X001161Y013461D01*
X001161Y014461D02*
X002061Y014461D01*
X004669Y011753D01*
X004669Y011154D01*
X005260Y011154D02*
X005260Y011153D01*
X005261Y011153D01*
X005261Y010761D01*
X005457Y011154D02*
X005457Y011757D01*
X005461Y011761D01*
X005261Y013196D02*
X005251Y013531D01*
X005371Y013641D01*
X005850Y014161D02*
X005961Y014261D01*
X005961Y014527D01*
X006196Y014761D01*
X006361Y014761D01*
X006661Y014461D01*
X005527Y014761D02*
X004996Y014761D01*
X004472Y014161D02*
X003802Y014166D01*
X003761Y014087D01*
X003761Y014756D02*
X003761Y015461D01*
X003767Y014761D02*
X003761Y014756D01*
X003767Y014761D02*
X004327Y014761D01*
X003061Y014561D02*
X002461Y015161D01*
X002461Y016361D01*
X001361Y017461D01*
X001161Y017461D01*
X005761Y009561D02*
X005261Y009061D01*
X004866Y008666D01*
X004866Y007768D01*
X004866Y005266D01*
X003361Y003761D01*
X003361Y003396D01*
X003761Y003661D02*
X003761Y002961D01*
X003527Y002727D01*
X003361Y002727D01*
X003761Y003661D02*
X005161Y005061D01*
X007661Y002561D01*
X007661Y001461D01*
X008361Y002261D02*
X009161Y001461D01*
X008361Y002261D02*
X008361Y002561D01*
X005063Y005860D01*
X005063Y007768D01*
X004669Y007768D02*
X004669Y005469D01*
X001761Y002561D01*
X001761Y002061D01*
X001161Y001461D01*
X001161Y002461D02*
X004472Y005772D01*
X004472Y007768D01*
X004275Y007768D02*
X004275Y005975D01*
X001761Y003461D01*
X001161Y003461D01*
X001161Y004461D02*
X002361Y004461D01*
X004079Y006179D01*
X004079Y007768D01*
X005761Y009961D02*
X005653Y010069D01*
X005761Y009961D02*
X005761Y009561D01*
X006244Y007768D02*
X006244Y007079D01*
X006961Y006361D01*
X007161Y006761D02*
X008161Y007761D01*
X008161Y008461D01*
X007850Y008772D01*
X006854Y008772D01*
X006854Y008969D02*
X007953Y008969D01*
X008361Y008561D01*
X008361Y007261D01*
X009161Y006461D01*
X009161Y007461D02*
X008561Y008061D01*
X008561Y008661D01*
X008057Y009166D01*
X006854Y009166D01*
X006854Y009363D02*
X008260Y009363D01*
X009161Y008461D01*
X007247Y010347D02*
X008561Y011661D01*
X008361Y011761D02*
X008361Y012661D01*
X008361Y011761D02*
X007144Y010544D01*
X006854Y010544D01*
X006854Y010347D02*
X007247Y010347D01*
X004661Y003361D02*
X004661Y002761D01*
X004661Y001461D01*
D23*
X005961Y009161D03*
X005761Y009961D03*
X005061Y010061D03*
X004561Y009761D03*
X004511Y010461D03*
X005371Y013641D03*
X006661Y014461D03*
X003761Y015461D03*
X003061Y014561D03*
D24*
X004661Y003361D03*
M02*
