%
M48
M72
T01C0.0150
T02C0.0197
T03C0.0315
T04C0.0320
T05C0.0360
T06C0.0400
T07C0.0591
%
T01
X4561Y9761
X4511Y10461
X5061Y10061
X5761Y9961
X5961Y9161
X5371Y13641
X6661Y14461
X3761Y15461
X3061Y14561
T02
X4661Y3361
T03
X5161Y3061
X5161Y5061
X5161Y17361
X4374Y17361
X5949Y17361
T04
X2961Y6961
X2961Y5961
T05
X7161Y5974
X7161Y6761
X7161Y7549
T06
X1161Y1461
X1161Y2461
X1161Y3461
X1161Y4461
X1161Y5461
X1161Y6461
X1161Y7461
X1161Y8461
X1161Y9461
X1161Y10461
X1161Y11461
X1161Y12461
X1161Y13461
X1161Y14461
X1161Y15461
X1161Y16461
X1161Y17461
X1161Y18461
X9161Y18461
X9161Y17461
X9161Y16461
X9161Y15461
X9161Y14461
X9161Y13461
X9161Y12461
X9161Y11461
X9161Y10461
X9161Y9461
X9161Y8461
X9161Y7461
X9161Y6461
X9161Y5461
X9161Y4461
X9161Y3461
X9161Y2461
X9161Y1461
X7661Y1461
X6661Y1461
X5661Y1461
X4661Y1461
X3661Y1461
X2661Y1461
T07
X3547Y17361
X6775Y17361
M30
