G75*
G70*
%OFA0B0*%
%FSLAX24Y24*%
%IPPOS*%
%LPD*%
%AMOC8*
5,1,8,0,0,1.08239X$1,22.5*
%
%ADD10C,0.0100*%
%ADD11C,0.0060*%
%ADD12C,0.0126*%
%ADD13C,0.0084*%
%ADD14C,0.0080*%
%ADD15R,0.0167X0.0128*%
%ADD16R,0.0138X0.0138*%
%ADD17R,0.0230X0.0160*%
%ADD18C,0.0168*%
%ADD19C,0.0000*%
%ADD20C,0.0001*%
D10*
X006092Y012588D02*
X005988Y012692D01*
X006111Y012843D01*
X006080Y012903D01*
X006059Y012968D01*
X005866Y012988D01*
X005866Y013134D01*
X006059Y013154D01*
X006080Y013219D01*
X006111Y013280D01*
X005988Y013431D01*
X006092Y013534D01*
X006243Y013411D01*
X006303Y013442D01*
X006368Y013463D01*
X006388Y013657D01*
X006534Y013657D01*
X006554Y013463D01*
X006619Y013442D01*
X006680Y013411D01*
X006831Y013534D01*
X006934Y013431D01*
X006811Y013280D01*
X006842Y013219D01*
X006863Y013154D01*
X007057Y013134D01*
X007057Y012988D01*
X006863Y012968D01*
X006842Y012903D01*
X006811Y012843D01*
X006934Y012692D01*
X006831Y012588D01*
X006680Y012711D01*
X006619Y012680D01*
X006533Y012888D01*
X006570Y012909D01*
X006602Y012937D01*
X006626Y012972D01*
X006897Y012972D01*
X006827Y012873D02*
X006539Y012873D01*
X006580Y012775D02*
X006866Y012775D01*
X006918Y012676D02*
X006723Y012676D01*
X006626Y012972D02*
X006642Y013011D01*
X006649Y013054D01*
X006646Y013096D01*
X006633Y013137D01*
X006612Y013173D01*
X006582Y013204D01*
X006547Y013228D01*
X006507Y013243D01*
X006465Y013249D01*
X006423Y013245D01*
X006382Y013231D01*
X006346Y013209D01*
X006316Y013179D01*
X006293Y013144D01*
X006279Y013104D01*
X006274Y013061D01*
X006277Y013025D01*
X006288Y012990D01*
X006305Y012957D01*
X006329Y012929D01*
X006357Y012905D01*
X006389Y012888D01*
X006303Y012680D01*
X006243Y012711D01*
X006092Y012588D01*
X006004Y012676D02*
X006200Y012676D01*
X006343Y012775D02*
X006056Y012775D01*
X006096Y012873D02*
X006383Y012873D01*
X006297Y012972D02*
X006026Y012972D01*
X005866Y013070D02*
X006275Y013070D01*
X006309Y013169D02*
X006064Y013169D01*
X006105Y013268D02*
X006817Y013268D01*
X006858Y013169D02*
X006614Y013169D01*
X006647Y013070D02*
X007057Y013070D01*
X006881Y013366D02*
X006041Y013366D01*
X006022Y013465D02*
X006177Y013465D01*
X006369Y013465D02*
X006554Y013465D01*
X006544Y013563D02*
X006379Y013563D01*
X006746Y013465D02*
X006900Y013465D01*
D11*
X003943Y012878D02*
X003945Y012900D01*
X003951Y012922D01*
X003960Y012942D01*
X003973Y012961D01*
X003989Y012977D01*
X004007Y012990D01*
X004028Y012999D01*
X004050Y013005D01*
X004072Y013007D01*
X004094Y013005D01*
X004116Y012999D01*
X004136Y012990D01*
X004155Y012977D01*
X004171Y012961D01*
X004184Y012942D01*
X004193Y012922D01*
X004199Y012900D01*
X004201Y012878D01*
X004199Y012856D01*
X004193Y012834D01*
X004184Y012814D01*
X004171Y012795D01*
X004155Y012779D01*
X004137Y012766D01*
X004116Y012757D01*
X004094Y012751D01*
X004072Y012749D01*
X004050Y012751D01*
X004028Y012757D01*
X004007Y012766D01*
X003989Y012779D01*
X003973Y012795D01*
X003960Y012813D01*
X003951Y012834D01*
X003945Y012856D01*
X003943Y012878D01*
X003609Y012903D02*
X003611Y012929D01*
X003617Y012954D01*
X003626Y012978D01*
X003640Y013000D01*
X003656Y013019D01*
X003675Y013037D01*
X003697Y013051D01*
X003720Y013061D01*
X003745Y013068D01*
X003771Y013071D01*
X003796Y013070D01*
X003822Y013065D01*
X003846Y013056D01*
X003868Y013044D01*
X003889Y013028D01*
X003907Y013010D01*
X003921Y012989D01*
X003933Y012966D01*
X003941Y012941D01*
X003945Y012916D01*
X003945Y012890D01*
X003941Y012865D01*
X003933Y012840D01*
X003921Y012817D01*
X003907Y012796D01*
X003889Y012778D01*
X003868Y012762D01*
X003846Y012750D01*
X003822Y012741D01*
X003796Y012736D01*
X003771Y012735D01*
X003745Y012738D01*
X003720Y012745D01*
X003697Y012755D01*
X003675Y012769D01*
X003656Y012787D01*
X003640Y012806D01*
X003626Y012828D01*
X003617Y012852D01*
X003611Y012877D01*
X003609Y012903D01*
D12*
X003735Y012967D03*
D13*
X004030Y012920D03*
D14*
X000661Y001211D02*
X000911Y000961D01*
X001411Y000961D01*
X001661Y001211D01*
X001661Y001711D01*
X001411Y001961D01*
X000911Y001961D01*
X000661Y001711D01*
X000661Y001211D01*
X000911Y001961D02*
X000661Y002211D01*
X000661Y002711D01*
X000911Y002961D01*
X000661Y003211D01*
X000661Y003711D01*
X000911Y003961D01*
X000661Y004211D01*
X000661Y004711D01*
X000911Y004961D01*
X000661Y005211D01*
X000661Y005711D01*
X000911Y005961D01*
X000661Y006211D01*
X000661Y006711D01*
X000911Y006961D01*
X000661Y007211D01*
X000661Y007711D01*
X000911Y007961D01*
X000661Y008211D01*
X000661Y008711D01*
X000911Y008961D01*
X000661Y009211D01*
X000661Y009711D01*
X000911Y009961D01*
X000661Y010211D01*
X000661Y010711D01*
X000911Y010961D01*
X000661Y011211D01*
X000661Y011711D01*
X000911Y011961D01*
X000661Y012211D01*
X000661Y012711D01*
X000911Y012961D01*
X000661Y013211D01*
X000661Y013711D01*
X000911Y013961D01*
X000661Y014211D01*
X000661Y014711D01*
X000911Y014961D01*
X000661Y015211D01*
X000661Y015711D01*
X000911Y015961D01*
X000661Y016211D01*
X000661Y016711D01*
X000911Y016961D01*
X000661Y017211D01*
X000661Y017711D01*
X000911Y017961D01*
X000661Y018211D01*
X000661Y018711D01*
X000911Y018961D01*
X001411Y018961D01*
X001661Y018711D01*
X001661Y018211D01*
X001411Y017961D01*
X001661Y017711D01*
X001661Y017211D01*
X001411Y016961D01*
X000911Y016961D01*
X001411Y016961D02*
X001661Y016711D01*
X001661Y016211D01*
X001411Y015961D01*
X001661Y015711D01*
X001661Y015211D01*
X001411Y014961D01*
X001661Y014711D01*
X001661Y014211D01*
X001411Y013961D01*
X000911Y013961D01*
X001411Y013961D02*
X001661Y013711D01*
X001661Y013211D01*
X001411Y012961D01*
X001661Y012711D01*
X001661Y012211D01*
X001411Y011961D01*
X001661Y011711D01*
X001661Y011211D01*
X001411Y010961D01*
X000911Y010961D01*
X001411Y010961D02*
X001661Y010711D01*
X001661Y010211D01*
X001411Y009961D01*
X001661Y009711D01*
X001661Y009211D01*
X001411Y008961D01*
X001661Y008711D01*
X001661Y008211D01*
X001411Y007961D01*
X000911Y007961D01*
X001411Y007961D02*
X001661Y007711D01*
X001661Y007211D01*
X001411Y006961D01*
X001661Y006711D01*
X001661Y006211D01*
X001411Y005961D01*
X001661Y005711D01*
X001661Y005211D01*
X001411Y004961D01*
X000911Y004961D01*
X001411Y004961D02*
X001661Y004711D01*
X001661Y004211D01*
X001411Y003961D01*
X001661Y003711D01*
X001661Y003211D01*
X001411Y002961D01*
X001661Y002711D01*
X001661Y002211D01*
X001411Y001961D01*
X001561Y001861D02*
X001761Y002061D01*
X001901Y002241D02*
X001901Y002401D01*
X001941Y002441D01*
X002021Y002441D01*
X002061Y002401D01*
X001901Y002241D01*
X001941Y002201D01*
X002021Y002201D01*
X002061Y002241D01*
X002061Y002401D01*
X002021Y002701D02*
X001941Y002701D01*
X001901Y002741D01*
X002061Y002901D01*
X002061Y002741D01*
X002021Y002701D01*
X001901Y002741D02*
X001901Y002901D01*
X001941Y002941D01*
X002021Y002941D01*
X002061Y002901D01*
X002196Y002741D02*
X002236Y002741D01*
X002236Y002701D01*
X002196Y002701D01*
X002196Y002741D01*
X002343Y002741D02*
X002383Y002701D01*
X002463Y002701D01*
X002503Y002741D01*
X002503Y002781D01*
X002463Y002821D01*
X002423Y002821D01*
X002463Y002821D02*
X002503Y002861D01*
X002503Y002901D01*
X002463Y002941D01*
X002383Y002941D01*
X002343Y002901D01*
X002343Y003301D02*
X002503Y003301D01*
X002423Y003301D02*
X002423Y003541D01*
X002343Y003461D01*
X002236Y003341D02*
X002236Y003301D01*
X002196Y003301D01*
X002196Y003341D01*
X002236Y003341D01*
X002061Y003341D02*
X002021Y003301D01*
X001941Y003301D01*
X001901Y003341D01*
X002061Y003501D01*
X002061Y003341D01*
X001901Y003341D02*
X001901Y003501D01*
X001941Y003541D01*
X002021Y003541D01*
X002061Y003501D01*
X002021Y004301D02*
X001941Y004301D01*
X001901Y004341D01*
X002061Y004501D01*
X002061Y004341D01*
X002021Y004301D01*
X001901Y004341D02*
X001901Y004501D01*
X001941Y004541D01*
X002021Y004541D01*
X002061Y004501D01*
X002196Y004341D02*
X002236Y004341D01*
X002236Y004301D01*
X002196Y004301D01*
X002196Y004341D01*
X002343Y004341D02*
X002343Y004501D01*
X002383Y004541D01*
X002463Y004541D01*
X002503Y004501D01*
X002343Y004341D01*
X002383Y004301D01*
X002463Y004301D01*
X002503Y004341D01*
X002503Y004501D01*
X002503Y005301D02*
X002343Y005301D01*
X002503Y005461D01*
X002503Y005501D01*
X002463Y005541D01*
X002383Y005541D01*
X002343Y005501D01*
X002236Y005341D02*
X002236Y005301D01*
X002196Y005301D01*
X002196Y005341D01*
X002236Y005341D01*
X002061Y005341D02*
X002021Y005301D01*
X001941Y005301D01*
X001901Y005341D01*
X002061Y005501D01*
X002061Y005341D01*
X001901Y005341D02*
X001901Y005501D01*
X001941Y005541D01*
X002021Y005541D01*
X002061Y005501D01*
X002021Y006301D02*
X001941Y006301D01*
X001901Y006341D01*
X002061Y006501D01*
X002061Y006341D01*
X002021Y006301D01*
X001901Y006341D02*
X001901Y006501D01*
X001941Y006541D01*
X002021Y006541D01*
X002061Y006501D01*
X002196Y006341D02*
X002236Y006341D01*
X002236Y006301D01*
X002196Y006301D01*
X002196Y006341D01*
X002343Y006301D02*
X002503Y006461D01*
X002503Y006501D01*
X002463Y006541D01*
X002383Y006541D01*
X002343Y006501D01*
X002343Y006301D02*
X002503Y006301D01*
X002638Y006341D02*
X002638Y006381D01*
X002678Y006421D01*
X002758Y006421D01*
X002798Y006381D01*
X002798Y006341D01*
X002758Y006301D01*
X002678Y006301D01*
X002638Y006341D01*
X002678Y006421D02*
X002638Y006461D01*
X002638Y006501D01*
X002678Y006541D01*
X002758Y006541D01*
X002798Y006501D01*
X002798Y006461D01*
X002758Y006421D01*
X002638Y007301D02*
X002638Y007341D01*
X002798Y007501D01*
X002798Y007541D01*
X002638Y007541D01*
X002503Y007501D02*
X002463Y007541D01*
X002383Y007541D01*
X002343Y007501D01*
X002503Y007461D02*
X002343Y007301D01*
X002503Y007301D01*
X002503Y007461D02*
X002503Y007501D01*
X002236Y007341D02*
X002236Y007301D01*
X002196Y007301D01*
X002196Y007341D01*
X002236Y007341D01*
X002061Y007341D02*
X002021Y007301D01*
X001941Y007301D01*
X001901Y007341D01*
X002061Y007501D01*
X002061Y007341D01*
X001901Y007341D02*
X001901Y007501D01*
X001941Y007541D01*
X002021Y007541D01*
X002061Y007501D01*
X002021Y008301D02*
X001941Y008301D01*
X001901Y008341D01*
X002061Y008501D01*
X002061Y008341D01*
X002021Y008301D01*
X001901Y008341D02*
X001901Y008501D01*
X001941Y008541D01*
X002021Y008541D01*
X002061Y008501D01*
X002196Y008341D02*
X002236Y008341D01*
X002236Y008301D01*
X002196Y008301D01*
X002196Y008341D01*
X002343Y008301D02*
X002503Y008461D01*
X002503Y008501D01*
X002463Y008541D01*
X002383Y008541D01*
X002343Y008501D01*
X002343Y008301D02*
X002503Y008301D01*
X002638Y008301D02*
X002798Y008301D01*
X002718Y008301D02*
X002718Y008541D01*
X002638Y008461D01*
X002678Y009301D02*
X002638Y009341D01*
X002798Y009501D01*
X002798Y009341D01*
X002758Y009301D01*
X002678Y009301D01*
X002638Y009341D02*
X002638Y009501D01*
X002678Y009541D01*
X002758Y009541D01*
X002798Y009501D01*
X002503Y009501D02*
X002463Y009541D01*
X002383Y009541D01*
X002343Y009501D01*
X002503Y009461D02*
X002343Y009301D01*
X002503Y009301D01*
X002503Y009461D02*
X002503Y009501D01*
X002236Y009341D02*
X002236Y009301D01*
X002196Y009301D01*
X002196Y009341D01*
X002236Y009341D01*
X002061Y009341D02*
X002021Y009301D01*
X001941Y009301D01*
X001901Y009341D01*
X002061Y009501D01*
X002061Y009341D01*
X001901Y009341D02*
X001901Y009501D01*
X001941Y009541D01*
X002021Y009541D01*
X002061Y009501D01*
X002021Y010301D02*
X001941Y010301D01*
X001901Y010341D01*
X002061Y010501D01*
X002061Y010341D01*
X002021Y010301D01*
X001901Y010341D02*
X001901Y010501D01*
X001941Y010541D01*
X002021Y010541D01*
X002061Y010501D01*
X002196Y010341D02*
X002236Y010341D01*
X002236Y010301D01*
X002196Y010301D01*
X002196Y010341D01*
X002343Y010301D02*
X002503Y010301D01*
X002423Y010301D02*
X002423Y010541D01*
X002343Y010461D01*
X002638Y010461D02*
X002678Y010421D01*
X002798Y010421D01*
X002798Y010341D02*
X002798Y010501D01*
X002758Y010541D01*
X002678Y010541D01*
X002638Y010501D01*
X002638Y010461D01*
X002638Y010341D02*
X002678Y010301D01*
X002758Y010301D01*
X002798Y010341D01*
X002758Y011301D02*
X002678Y011301D01*
X002638Y011341D01*
X002638Y011381D01*
X002678Y011421D01*
X002758Y011421D01*
X002798Y011381D01*
X002798Y011341D01*
X002758Y011301D01*
X002758Y011421D02*
X002798Y011461D01*
X002798Y011501D01*
X002758Y011541D01*
X002678Y011541D01*
X002638Y011501D01*
X002638Y011461D01*
X002678Y011421D01*
X002503Y011301D02*
X002343Y011301D01*
X002423Y011301D02*
X002423Y011541D01*
X002343Y011461D01*
X002236Y011341D02*
X002236Y011301D01*
X002196Y011301D01*
X002196Y011341D01*
X002236Y011341D01*
X002061Y011341D02*
X002021Y011301D01*
X001941Y011301D01*
X001901Y011341D01*
X002061Y011501D01*
X002061Y011341D01*
X001901Y011341D02*
X001901Y011501D01*
X001941Y011541D01*
X002021Y011541D01*
X002061Y011501D01*
X002021Y012301D02*
X001941Y012301D01*
X001901Y012341D01*
X002061Y012501D01*
X002061Y012341D01*
X002021Y012301D01*
X001901Y012341D02*
X001901Y012501D01*
X001941Y012541D01*
X002021Y012541D01*
X002061Y012501D01*
X002196Y012341D02*
X002196Y012301D01*
X002236Y012301D01*
X002236Y012341D01*
X002196Y012341D01*
X002343Y012301D02*
X002503Y012301D01*
X002423Y012301D02*
X002423Y012541D01*
X002343Y012461D01*
X002638Y012541D02*
X002798Y012541D01*
X002798Y012501D01*
X002638Y012341D01*
X002638Y012301D01*
X002849Y012184D02*
X002849Y011764D01*
X003129Y011764D01*
X003310Y011764D02*
X003310Y012184D01*
X003520Y012184D01*
X003590Y012114D01*
X003590Y011974D01*
X003520Y011904D01*
X003310Y011904D01*
X003440Y012440D02*
X003440Y012861D01*
X003440Y012440D02*
X004282Y012440D01*
X004282Y012861D01*
X004156Y012651D02*
X004114Y012567D01*
X004282Y012861D02*
X004280Y012900D01*
X004275Y012938D01*
X004266Y012976D01*
X004254Y013013D01*
X004238Y013049D01*
X004219Y013083D01*
X004197Y013115D01*
X004172Y013145D01*
X004145Y013172D01*
X004115Y013197D01*
X004083Y013219D01*
X004049Y013238D01*
X004013Y013254D01*
X003976Y013266D01*
X003938Y013275D01*
X003900Y013280D01*
X003861Y013282D01*
X003861Y013324D01*
X003735Y012567D02*
X003781Y012556D01*
X003828Y012548D01*
X003876Y012544D01*
X003924Y012542D01*
X003972Y012544D01*
X004020Y012548D01*
X004067Y012556D01*
X004113Y012567D01*
X003440Y012861D02*
X003442Y012900D01*
X003447Y012938D01*
X003456Y012976D01*
X003468Y013013D01*
X003484Y013049D01*
X003503Y013083D01*
X003525Y013115D01*
X003550Y013145D01*
X003577Y013172D01*
X003607Y013197D01*
X003639Y013219D01*
X003673Y013238D01*
X003709Y013254D01*
X003746Y013266D01*
X003784Y013275D01*
X003822Y013280D01*
X003861Y013282D01*
X003651Y012694D02*
X003705Y012676D01*
X003760Y012661D01*
X003816Y012650D01*
X003872Y012642D01*
X003929Y012637D01*
X003986Y012636D01*
X004043Y012638D01*
X004100Y012643D01*
X004156Y012652D01*
X004300Y012184D02*
X004230Y012114D01*
X004300Y012184D02*
X004440Y012184D01*
X004511Y012114D01*
X004511Y012044D01*
X004230Y011764D01*
X004511Y011764D01*
X004691Y011764D02*
X004971Y011764D01*
X004831Y011764D02*
X004831Y012184D01*
X004691Y012044D01*
X004704Y012551D02*
X004651Y012605D01*
X004651Y012711D01*
X004704Y012765D01*
X004811Y012920D02*
X004651Y013080D01*
X004971Y013080D01*
X004811Y013133D02*
X004811Y012920D01*
X004918Y012765D02*
X004971Y012711D01*
X004971Y012605D01*
X004918Y012551D01*
X004704Y012551D01*
X004577Y012819D02*
X004550Y012820D01*
X004523Y012818D01*
X004496Y012811D01*
X004471Y012802D01*
X004447Y012789D01*
X004425Y012773D01*
X004406Y012754D01*
X004389Y012733D01*
X004375Y012709D01*
X004365Y012684D01*
X004358Y012658D01*
X004354Y012631D01*
X004355Y012604D01*
X004359Y012577D01*
X004366Y012551D01*
X004377Y012526D01*
X004391Y012503D01*
X004409Y012483D01*
X004577Y012820D02*
X004551Y012831D01*
X004526Y012846D01*
X004504Y012864D01*
X004484Y012884D01*
X004466Y012907D01*
X004452Y012933D01*
X004441Y012959D01*
X004434Y012987D01*
X004430Y013016D01*
X004430Y013044D01*
X004434Y013073D01*
X004441Y013101D01*
X004452Y013127D01*
X004466Y013153D01*
X004484Y013176D01*
X004504Y013196D01*
X004526Y013214D01*
X004551Y013229D01*
X004577Y013240D01*
X004547Y013233D01*
X004516Y013229D01*
X004485Y013228D01*
X004454Y013232D01*
X004424Y013239D01*
X004395Y013250D01*
X004367Y013265D01*
X004342Y013282D01*
X004318Y013303D01*
X004298Y013326D01*
X004280Y013352D01*
X004266Y013380D01*
X004255Y013409D01*
X004248Y013439D01*
X004244Y013470D01*
X004245Y013501D01*
X004249Y013532D01*
X004257Y013562D01*
X004268Y013591D01*
X004283Y013619D01*
X004259Y013592D01*
X004233Y013569D01*
X004204Y013549D01*
X004173Y013531D01*
X004141Y013518D01*
X004107Y013508D01*
X004072Y013501D01*
X004037Y013499D01*
X004002Y013501D01*
X003967Y013506D01*
X003933Y013515D01*
X003900Y013528D01*
X003869Y013544D01*
X003840Y013564D01*
X003813Y013587D01*
X003789Y013612D01*
X003767Y013641D01*
X003749Y013671D01*
X003735Y013703D01*
X003729Y013667D01*
X003720Y013632D01*
X003708Y013598D01*
X003692Y013565D01*
X003672Y013534D01*
X003650Y013506D01*
X003624Y013480D01*
X003596Y013456D01*
X003566Y013436D01*
X003534Y013419D01*
X003500Y013406D01*
X003465Y013396D01*
X003429Y013389D01*
X003393Y013387D01*
X003356Y013388D01*
X003320Y013394D01*
X003285Y013403D01*
X003251Y013415D01*
X003218Y013431D01*
X003187Y013451D01*
X003188Y013451D02*
X003217Y013432D01*
X003244Y013411D01*
X003268Y013387D01*
X003289Y013359D01*
X003307Y013330D01*
X003321Y013299D01*
X003331Y013266D01*
X003338Y013233D01*
X003341Y013198D01*
X003340Y013164D01*
X003334Y013130D01*
X003325Y013097D01*
X003312Y013065D01*
X003296Y013035D01*
X003276Y013007D01*
X003253Y012982D01*
X003227Y012959D01*
X003199Y012940D01*
X003169Y012924D01*
X003137Y012911D01*
X003104Y012903D01*
X003103Y012903D02*
X003135Y012904D01*
X003168Y012900D01*
X003199Y012892D01*
X003229Y012880D01*
X003258Y012865D01*
X003284Y012846D01*
X003308Y012825D01*
X003329Y012800D01*
X003347Y012773D01*
X003362Y012744D01*
X003373Y012714D01*
X003380Y012682D01*
X003383Y012650D01*
X003382Y012617D01*
X003377Y012585D01*
X003368Y012554D01*
X003356Y012524D01*
X003651Y012693D02*
X003735Y012567D01*
X003840Y012184D02*
X003770Y012114D01*
X003770Y011834D01*
X003840Y011764D01*
X003980Y011764D01*
X004050Y011834D01*
X004050Y012114D02*
X003980Y012184D01*
X003840Y012184D01*
X003980Y010760D02*
X003862Y010642D01*
X003862Y008280D01*
X003980Y008162D01*
X006342Y008162D01*
X006460Y008280D01*
X006460Y010642D01*
X006342Y010760D01*
X003980Y010760D01*
X004000Y010505D02*
X004002Y010524D01*
X004007Y010543D01*
X004017Y010559D01*
X004029Y010574D01*
X004044Y010586D01*
X004060Y010596D01*
X004079Y010601D01*
X004098Y010603D01*
X004117Y010601D01*
X004136Y010596D01*
X004152Y010586D01*
X004167Y010574D01*
X004179Y010559D01*
X004189Y010543D01*
X004194Y010524D01*
X004196Y010505D01*
X004194Y010486D01*
X004189Y010467D01*
X004179Y010451D01*
X004167Y010436D01*
X004152Y010424D01*
X004136Y010414D01*
X004117Y010409D01*
X004098Y010407D01*
X004079Y010409D01*
X004060Y010414D01*
X004044Y010424D01*
X004029Y010436D01*
X004017Y010451D01*
X004007Y010467D01*
X004002Y010486D01*
X004000Y010505D01*
X005221Y011764D02*
X005151Y011834D01*
X005431Y012114D01*
X005431Y011834D01*
X005361Y011764D01*
X005221Y011764D01*
X005151Y011834D02*
X005151Y012114D01*
X005221Y012184D01*
X005361Y012184D01*
X005431Y012114D01*
X005611Y012044D02*
X005751Y012184D01*
X005751Y011764D01*
X005611Y011764D02*
X005892Y011764D01*
X006072Y011764D02*
X006352Y012184D01*
X006532Y012114D02*
X006602Y012184D01*
X006742Y012184D01*
X006812Y012114D01*
X006812Y012044D01*
X006532Y011764D01*
X006812Y011764D01*
X006992Y011764D02*
X007273Y012184D01*
X007453Y012114D02*
X007523Y012184D01*
X007663Y012184D01*
X007733Y012114D01*
X007733Y012044D01*
X007663Y011974D01*
X007733Y011904D01*
X007733Y011834D01*
X007663Y011764D01*
X007523Y011764D01*
X007453Y011834D01*
X007593Y011974D02*
X007663Y011974D01*
X007590Y012381D02*
X007510Y012381D01*
X007470Y012421D01*
X007630Y012581D01*
X007630Y012421D01*
X007590Y012381D01*
X007470Y012421D02*
X007470Y012581D01*
X007510Y012621D01*
X007590Y012621D01*
X007630Y012581D01*
X007765Y012421D02*
X007805Y012421D01*
X007805Y012381D01*
X007765Y012381D01*
X007765Y012421D01*
X007912Y012381D02*
X008072Y012381D01*
X007992Y012381D02*
X007992Y012621D01*
X007912Y012541D01*
X008207Y012581D02*
X008207Y012421D01*
X008367Y012581D01*
X008367Y012421D01*
X008327Y012381D01*
X008247Y012381D01*
X008207Y012421D01*
X008207Y012581D02*
X008247Y012621D01*
X008327Y012621D01*
X008367Y012581D01*
X008661Y012711D02*
X008661Y012211D01*
X008911Y011961D01*
X008661Y011711D01*
X008661Y011211D01*
X008911Y010961D01*
X009411Y010961D01*
X009661Y011211D01*
X009661Y011711D01*
X009411Y011961D01*
X008911Y011961D01*
X008661Y012711D02*
X008911Y012961D01*
X008661Y013211D01*
X008661Y013711D01*
X008911Y013961D01*
X008661Y014211D01*
X008661Y014711D01*
X008911Y014961D01*
X008661Y015211D01*
X008661Y015711D01*
X008911Y015961D01*
X008661Y016211D01*
X008661Y016711D01*
X008911Y016961D01*
X008661Y017211D01*
X008661Y017711D01*
X008911Y017961D01*
X008661Y018211D01*
X008661Y018711D01*
X008911Y018961D01*
X009411Y018961D01*
X009661Y018711D01*
X009661Y018211D01*
X009411Y017961D01*
X009661Y017711D01*
X009661Y017211D01*
X009411Y016961D01*
X008911Y016961D01*
X009411Y016961D02*
X009661Y016711D01*
X009661Y016211D01*
X009411Y015961D01*
X009661Y015711D01*
X009661Y015211D01*
X009411Y014961D01*
X009661Y014711D01*
X009661Y014211D01*
X009411Y013961D01*
X008911Y013961D01*
X009411Y013961D02*
X009661Y013711D01*
X009661Y013211D01*
X009411Y012961D01*
X009661Y012711D01*
X009661Y012211D01*
X009411Y011961D01*
X009411Y010961D02*
X009661Y010711D01*
X009661Y010211D01*
X009411Y009961D01*
X009661Y009711D01*
X009661Y009211D01*
X009411Y008961D01*
X009661Y008711D01*
X009661Y008211D01*
X009411Y007961D01*
X008911Y007961D01*
X008661Y008211D01*
X008661Y008711D01*
X008911Y008961D01*
X008661Y009211D01*
X008661Y009711D01*
X008911Y009961D01*
X008661Y010211D01*
X008661Y010711D01*
X008911Y010961D01*
X008367Y011401D02*
X008207Y011401D01*
X008327Y011521D01*
X008327Y011281D01*
X008072Y011281D02*
X007912Y011281D01*
X008072Y011441D01*
X008072Y011481D01*
X008032Y011521D01*
X007952Y011521D01*
X007912Y011481D01*
X007805Y011321D02*
X007805Y011281D01*
X007765Y011281D01*
X007765Y011321D01*
X007805Y011321D01*
X007630Y011321D02*
X007630Y011481D01*
X007470Y011321D01*
X007510Y011281D01*
X007590Y011281D01*
X007630Y011321D01*
X007630Y011481D02*
X007590Y011521D01*
X007510Y011521D01*
X007470Y011481D01*
X007470Y011321D01*
X007510Y010521D02*
X007470Y010481D01*
X007470Y010321D01*
X007630Y010481D01*
X007630Y010321D01*
X007590Y010281D01*
X007510Y010281D01*
X007470Y010321D01*
X007510Y010521D02*
X007590Y010521D01*
X007630Y010481D01*
X007765Y010321D02*
X007805Y010321D01*
X007805Y010281D01*
X007765Y010281D01*
X007765Y010321D01*
X007912Y010281D02*
X008072Y010441D01*
X008072Y010481D01*
X008032Y010521D01*
X007952Y010521D01*
X007912Y010481D01*
X007912Y010281D02*
X008072Y010281D01*
X008207Y010321D02*
X008247Y010281D01*
X008327Y010281D01*
X008367Y010321D01*
X008367Y010361D01*
X008327Y010401D01*
X008287Y010401D01*
X008327Y010401D02*
X008367Y010441D01*
X008367Y010481D01*
X008327Y010521D01*
X008247Y010521D01*
X008207Y010481D01*
X008247Y009521D02*
X008207Y009481D01*
X008247Y009521D02*
X008327Y009521D01*
X008367Y009481D01*
X008367Y009441D01*
X008207Y009281D01*
X008367Y009281D01*
X008072Y009281D02*
X007912Y009281D01*
X008072Y009441D01*
X008072Y009481D01*
X008032Y009521D01*
X007952Y009521D01*
X007912Y009481D01*
X007805Y009321D02*
X007805Y009281D01*
X007765Y009281D01*
X007765Y009321D01*
X007805Y009321D01*
X007630Y009321D02*
X007630Y009481D01*
X007470Y009321D01*
X007510Y009281D01*
X007590Y009281D01*
X007630Y009321D01*
X007630Y009481D02*
X007590Y009521D01*
X007510Y009521D01*
X007470Y009481D01*
X007470Y009321D01*
X007805Y008521D02*
X007885Y008521D01*
X007925Y008481D01*
X007765Y008321D01*
X007805Y008281D01*
X007885Y008281D01*
X007925Y008321D01*
X007925Y008481D01*
X007805Y008521D02*
X007765Y008481D01*
X007765Y008321D01*
X007653Y008041D02*
X007653Y005482D01*
X006669Y005482D01*
X006669Y008041D01*
X007653Y008041D01*
X007805Y007521D02*
X007885Y007521D01*
X007925Y007481D01*
X007765Y007321D01*
X007805Y007281D01*
X007885Y007281D01*
X007925Y007321D01*
X007925Y007481D01*
X007805Y007521D02*
X007765Y007481D01*
X007765Y007321D01*
X008059Y007321D02*
X008099Y007321D01*
X008099Y007281D01*
X008059Y007281D01*
X008059Y007321D01*
X008207Y007321D02*
X008207Y007361D01*
X008247Y007401D01*
X008327Y007401D01*
X008367Y007361D01*
X008367Y007321D01*
X008327Y007281D01*
X008247Y007281D01*
X008207Y007321D01*
X008247Y007401D02*
X008207Y007441D01*
X008207Y007481D01*
X008247Y007521D01*
X008327Y007521D01*
X008367Y007481D01*
X008367Y007441D01*
X008327Y007401D01*
X008661Y007211D02*
X008661Y007711D01*
X008911Y007961D01*
X008661Y007211D02*
X008911Y006961D01*
X008661Y006711D01*
X008661Y006211D01*
X008911Y005961D01*
X008661Y005711D01*
X008661Y005211D01*
X008911Y004961D01*
X009411Y004961D01*
X009661Y005211D01*
X009661Y005711D01*
X009411Y005961D01*
X008911Y005961D01*
X009411Y005961D02*
X009661Y006211D01*
X009661Y006711D01*
X009411Y006961D01*
X008911Y006961D01*
X009411Y006961D02*
X009661Y007211D01*
X009661Y007711D01*
X009411Y007961D01*
X009411Y008961D02*
X008911Y008961D01*
X008367Y008481D02*
X008367Y008321D01*
X008327Y008281D01*
X008247Y008281D01*
X008207Y008321D01*
X008247Y008401D02*
X008207Y008441D01*
X008207Y008481D01*
X008247Y008521D01*
X008327Y008521D01*
X008367Y008481D01*
X008367Y008401D02*
X008247Y008401D01*
X008099Y008321D02*
X008099Y008281D01*
X008059Y008281D01*
X008059Y008321D01*
X008099Y008321D01*
X008207Y006521D02*
X008367Y006521D01*
X008367Y006481D01*
X008207Y006321D01*
X008207Y006281D01*
X008099Y006281D02*
X008059Y006281D01*
X008059Y006321D01*
X008099Y006321D01*
X008099Y006281D01*
X007925Y006321D02*
X007885Y006281D01*
X007805Y006281D01*
X007765Y006321D01*
X007925Y006481D01*
X007925Y006321D01*
X007765Y006321D02*
X007765Y006481D01*
X007805Y006521D01*
X007885Y006521D01*
X007925Y006481D01*
X007885Y005521D02*
X007805Y005521D01*
X007765Y005481D01*
X007765Y005321D01*
X007925Y005481D01*
X007925Y005321D01*
X007885Y005281D01*
X007805Y005281D01*
X007765Y005321D01*
X007925Y005481D02*
X007885Y005521D01*
X008059Y005321D02*
X008099Y005321D01*
X008099Y005281D01*
X008059Y005281D01*
X008059Y005321D01*
X008207Y005321D02*
X008207Y005401D01*
X008327Y005401D01*
X008367Y005361D01*
X008367Y005321D01*
X008327Y005281D01*
X008247Y005281D01*
X008207Y005321D01*
X008207Y005401D02*
X008287Y005481D01*
X008367Y005521D01*
X008911Y004961D02*
X008661Y004711D01*
X008661Y004211D01*
X008911Y003961D01*
X008661Y003711D01*
X008661Y003211D01*
X008911Y002961D01*
X008661Y002711D01*
X008661Y002211D01*
X008911Y001961D01*
X008661Y001711D01*
X008661Y001211D01*
X008911Y000961D01*
X009411Y000961D01*
X009661Y001211D01*
X009661Y001711D01*
X009411Y001961D01*
X008911Y001961D01*
X008661Y001861D02*
X008461Y002061D01*
X008367Y002181D02*
X008207Y002181D01*
X008367Y002341D01*
X008367Y002381D01*
X008327Y002421D01*
X008247Y002421D01*
X008207Y002381D01*
X008099Y002221D02*
X008099Y002181D01*
X008059Y002181D01*
X008059Y002221D01*
X008099Y002221D01*
X007925Y002221D02*
X007885Y002181D01*
X007805Y002181D01*
X007765Y002221D01*
X007925Y002381D01*
X007925Y002221D01*
X007765Y002221D02*
X007765Y002381D01*
X007805Y002421D01*
X007885Y002421D01*
X007925Y002381D01*
X007885Y002681D02*
X007805Y002681D01*
X007765Y002721D01*
X007925Y002881D01*
X007925Y002721D01*
X007885Y002681D01*
X007765Y002721D02*
X007765Y002881D01*
X007805Y002921D01*
X007885Y002921D01*
X007925Y002881D01*
X008059Y002721D02*
X008099Y002721D01*
X008099Y002681D01*
X008059Y002681D01*
X008059Y002721D01*
X008207Y002721D02*
X008247Y002681D01*
X008327Y002681D01*
X008367Y002721D01*
X008367Y002761D01*
X008327Y002801D01*
X008287Y002801D01*
X008327Y002801D02*
X008367Y002841D01*
X008367Y002881D01*
X008327Y002921D01*
X008247Y002921D01*
X008207Y002881D01*
X008099Y003381D02*
X008059Y003381D01*
X008059Y003421D01*
X008099Y003421D01*
X008099Y003381D01*
X008207Y003501D02*
X008367Y003501D01*
X008327Y003381D02*
X008327Y003621D01*
X008207Y003501D01*
X007925Y003421D02*
X007885Y003381D01*
X007805Y003381D01*
X007765Y003421D01*
X007925Y003581D01*
X007925Y003421D01*
X007765Y003421D02*
X007765Y003581D01*
X007805Y003621D01*
X007885Y003621D01*
X007925Y003581D01*
X007885Y004281D02*
X007805Y004281D01*
X007765Y004321D01*
X007925Y004481D01*
X007925Y004321D01*
X007885Y004281D01*
X007765Y004321D02*
X007765Y004481D01*
X007805Y004521D01*
X007885Y004521D01*
X007925Y004481D01*
X008059Y004321D02*
X008099Y004321D01*
X008099Y004281D01*
X008059Y004281D01*
X008059Y004321D01*
X008207Y004321D02*
X008247Y004281D01*
X008327Y004281D01*
X008367Y004321D01*
X008367Y004401D01*
X008327Y004441D01*
X008287Y004441D01*
X008207Y004401D01*
X008207Y004521D01*
X008367Y004521D01*
X008911Y003961D02*
X009411Y003961D01*
X009661Y003711D01*
X009661Y003211D01*
X009411Y002961D01*
X009661Y002711D01*
X009661Y002211D01*
X009411Y001961D01*
X009411Y002961D02*
X008911Y002961D01*
X009411Y003961D02*
X009661Y004211D01*
X009661Y004711D01*
X009411Y004961D01*
X008161Y001961D02*
X007161Y001961D01*
X007161Y001711D01*
X006911Y001961D01*
X006411Y001961D01*
X006161Y001711D01*
X006161Y001211D01*
X006411Y000961D01*
X006911Y000961D01*
X007161Y001211D01*
X007161Y000961D01*
X008161Y000961D01*
X008161Y001961D01*
X008051Y000741D02*
X008051Y000501D01*
X007891Y000741D01*
X007891Y000501D01*
X007756Y000501D02*
X007676Y000581D01*
X007716Y000581D02*
X007596Y000581D01*
X007596Y000501D02*
X007596Y000741D01*
X007716Y000741D01*
X007756Y000701D01*
X007756Y000621D01*
X007716Y000581D01*
X007461Y000541D02*
X007461Y000621D01*
X007381Y000621D01*
X007301Y000701D02*
X007301Y000541D01*
X007341Y000501D01*
X007421Y000501D01*
X007461Y000541D01*
X007461Y000701D02*
X007421Y000741D01*
X007341Y000741D01*
X007301Y000701D01*
X007161Y001211D02*
X007161Y001711D01*
X006342Y002880D02*
X005476Y002880D01*
X005532Y002572D02*
X005322Y002572D01*
X005322Y002151D01*
X005532Y002151D01*
X005602Y002221D01*
X005602Y002502D01*
X005532Y002572D01*
X005782Y002572D02*
X005922Y002572D01*
X005852Y002572D02*
X005852Y002151D01*
X005782Y002151D02*
X005922Y002151D01*
X005911Y001961D02*
X006161Y001711D01*
X006161Y001211D02*
X005911Y000961D01*
X005411Y000961D01*
X005161Y001211D01*
X004911Y000961D01*
X004411Y000961D01*
X004161Y001211D01*
X003911Y000961D01*
X003411Y000961D01*
X003161Y001211D01*
X002911Y000961D01*
X002411Y000961D01*
X002161Y001211D01*
X002161Y001711D01*
X002411Y001961D01*
X002911Y001961D01*
X003161Y001711D01*
X003411Y001961D01*
X003911Y001961D01*
X004161Y001711D01*
X004411Y001961D01*
X004911Y001961D01*
X005161Y001711D01*
X005411Y001961D01*
X005911Y001961D01*
X006342Y002880D02*
X006342Y005242D01*
X005476Y005242D01*
X005482Y005401D02*
X005763Y005401D01*
X005622Y005611D02*
X005482Y005611D01*
X005482Y005401D02*
X005482Y005822D01*
X005763Y005822D01*
X005943Y005822D02*
X006223Y005822D01*
X006083Y005822D02*
X006083Y005401D01*
X006461Y005761D02*
X006361Y005861D01*
X006461Y005761D02*
X006661Y005761D01*
X006540Y006008D02*
X006540Y006168D01*
X006486Y006221D01*
X006273Y006221D01*
X006220Y006168D01*
X006220Y006008D01*
X006540Y006008D01*
X006540Y006376D02*
X006540Y006536D01*
X006486Y006589D01*
X006433Y006589D01*
X006380Y006536D01*
X006380Y006376D01*
X006540Y006376D02*
X006220Y006376D01*
X006220Y006536D01*
X006273Y006589D01*
X006326Y006589D01*
X006380Y006536D01*
X006273Y006744D02*
X006486Y006744D01*
X006540Y006798D01*
X006540Y006904D01*
X006486Y006958D01*
X006380Y006958D01*
X006380Y006851D01*
X006273Y006958D02*
X006220Y006904D01*
X006220Y006798D01*
X006273Y006744D01*
X006361Y007061D02*
X006461Y007161D01*
X006661Y007161D01*
X006011Y006761D02*
X006011Y006161D01*
X006009Y006144D01*
X006005Y006127D01*
X005998Y006111D01*
X005988Y006097D01*
X005975Y006084D01*
X005961Y006074D01*
X005945Y006067D01*
X005928Y006063D01*
X005911Y006061D01*
X003761Y006061D01*
X003761Y006111D01*
X003761Y006811D01*
X003761Y006861D01*
X005911Y006861D01*
X005928Y006859D01*
X005945Y006855D01*
X005961Y006848D01*
X005975Y006838D01*
X005988Y006825D01*
X005998Y006811D01*
X006005Y006795D01*
X006009Y006778D01*
X006011Y006761D01*
X005440Y007051D02*
X005280Y007051D01*
X005440Y007211D01*
X005280Y007211D01*
X005145Y007171D02*
X004985Y007171D01*
X004985Y007051D02*
X004985Y007291D01*
X004851Y007291D02*
X004851Y007051D01*
X004771Y007211D02*
X004851Y007291D01*
X004771Y007211D02*
X004691Y007291D01*
X004691Y007051D01*
X004556Y007051D02*
X004396Y007051D01*
X004556Y007211D01*
X004556Y007251D01*
X004516Y007291D01*
X004436Y007291D01*
X004396Y007251D01*
X004181Y007291D02*
X004181Y007051D01*
X004101Y007051D02*
X004261Y007051D01*
X004101Y007211D02*
X004181Y007291D01*
X003761Y006811D02*
X003611Y006811D01*
X003611Y006111D01*
X003761Y006111D01*
X004101Y005822D02*
X004101Y005401D01*
X004101Y005541D02*
X004311Y005541D01*
X004381Y005611D01*
X004381Y005752D01*
X004311Y005822D01*
X004101Y005822D01*
X004241Y005541D02*
X004381Y005401D01*
X004562Y005401D02*
X004842Y005401D01*
X004846Y005242D02*
X003980Y005242D01*
X003980Y002880D01*
X004846Y002880D01*
X004862Y002572D02*
X005142Y002572D01*
X005002Y002572D02*
X005002Y002151D01*
X005161Y001711D02*
X005161Y001211D01*
X004541Y002361D02*
X004401Y002361D01*
X004401Y002151D02*
X004401Y002572D01*
X004681Y002572D01*
X004161Y001711D02*
X004161Y001211D01*
X003161Y001211D02*
X003161Y001711D01*
X002798Y002201D02*
X002638Y002201D01*
X002718Y002201D02*
X002718Y002441D01*
X002638Y002361D01*
X002503Y002361D02*
X002503Y002401D01*
X002463Y002441D01*
X002383Y002441D01*
X002343Y002401D01*
X002423Y002321D02*
X002463Y002321D01*
X002503Y002281D01*
X002503Y002241D01*
X002463Y002201D01*
X002383Y002201D01*
X002343Y002241D01*
X002236Y002241D02*
X002236Y002201D01*
X002196Y002201D01*
X002196Y002241D01*
X002236Y002241D01*
X002463Y002321D02*
X002503Y002361D01*
X002678Y002701D02*
X002638Y002741D01*
X002798Y002901D01*
X002798Y002741D01*
X002758Y002701D01*
X002678Y002701D01*
X002638Y002741D02*
X002638Y002901D01*
X002678Y002941D01*
X002758Y002941D01*
X002798Y002901D01*
X003251Y003751D02*
X003251Y003911D01*
X003304Y003965D01*
X003411Y003965D01*
X003465Y003911D01*
X003465Y003751D01*
X003571Y003751D02*
X003251Y003751D01*
X003465Y003858D02*
X003571Y003965D01*
X003571Y004120D02*
X003518Y004120D01*
X003304Y004333D01*
X003251Y004333D01*
X003251Y004120D01*
X002758Y005301D02*
X002678Y005301D01*
X002638Y005341D01*
X002678Y005421D02*
X002798Y005421D01*
X002798Y005341D02*
X002798Y005501D01*
X002758Y005541D01*
X002678Y005541D01*
X002638Y005501D01*
X002638Y005461D01*
X002678Y005421D01*
X002758Y005301D02*
X002798Y005341D01*
X003261Y006261D02*
X003411Y006261D01*
X003461Y006661D02*
X003261Y006661D01*
X004411Y006461D02*
X004611Y006461D01*
X004611Y006261D01*
X004761Y006261D02*
X004911Y006261D01*
X004911Y006661D01*
X004761Y006661D01*
X004761Y006261D01*
X004611Y006461D02*
X004611Y006661D01*
X005061Y006661D02*
X005061Y006461D01*
X005061Y006261D01*
X005061Y006461D02*
X005261Y006461D01*
X005145Y007051D02*
X005145Y007291D01*
X005092Y005822D02*
X005022Y005752D01*
X005022Y005681D01*
X005092Y005611D01*
X005232Y005611D01*
X005302Y005541D01*
X005302Y005471D01*
X005232Y005401D01*
X005092Y005401D01*
X005022Y005471D01*
X005092Y005822D02*
X005232Y005822D01*
X005302Y005752D01*
X004842Y005822D02*
X004562Y005822D01*
X004562Y005401D01*
X004562Y005611D02*
X004702Y005611D01*
X004604Y004061D02*
X004606Y004108D01*
X004612Y004154D01*
X004621Y004200D01*
X004635Y004244D01*
X004652Y004288D01*
X004673Y004329D01*
X004697Y004369D01*
X004724Y004407D01*
X004755Y004442D01*
X004788Y004475D01*
X004824Y004505D01*
X004863Y004531D01*
X004903Y004555D01*
X004945Y004574D01*
X004989Y004591D01*
X005034Y004603D01*
X005080Y004612D01*
X005126Y004617D01*
X005173Y004618D01*
X005219Y004615D01*
X005265Y004608D01*
X005311Y004597D01*
X005355Y004583D01*
X005398Y004565D01*
X005439Y004543D01*
X005479Y004518D01*
X005516Y004490D01*
X005551Y004459D01*
X005583Y004425D01*
X005612Y004388D01*
X005637Y004350D01*
X005660Y004309D01*
X005679Y004266D01*
X005694Y004222D01*
X005706Y004177D01*
X005714Y004131D01*
X005718Y004084D01*
X005718Y004038D01*
X005714Y003991D01*
X005706Y003945D01*
X005694Y003900D01*
X005679Y003856D01*
X005660Y003813D01*
X005637Y003772D01*
X005612Y003734D01*
X005583Y003697D01*
X005551Y003663D01*
X005516Y003632D01*
X005479Y003604D01*
X005440Y003579D01*
X005398Y003557D01*
X005355Y003539D01*
X005311Y003525D01*
X005265Y003514D01*
X005219Y003507D01*
X005173Y003504D01*
X005126Y003505D01*
X005080Y003510D01*
X005034Y003519D01*
X004989Y003531D01*
X004945Y003548D01*
X004903Y003567D01*
X004863Y003591D01*
X004824Y003617D01*
X004788Y003647D01*
X004755Y003680D01*
X004724Y003715D01*
X004697Y003753D01*
X004673Y003793D01*
X004652Y003834D01*
X004635Y003878D01*
X004621Y003922D01*
X004612Y003968D01*
X004606Y004014D01*
X004604Y004061D01*
X003051Y000741D02*
X002891Y000581D01*
X002931Y000621D02*
X003051Y000501D01*
X002891Y000501D02*
X002891Y000741D01*
X002756Y000501D02*
X002596Y000501D01*
X002596Y000741D01*
X002461Y000701D02*
X002461Y000661D01*
X002421Y000621D01*
X002301Y000621D01*
X002301Y000501D02*
X002301Y000741D01*
X002421Y000741D01*
X002461Y000701D01*
X002421Y000621D02*
X002461Y000581D01*
X002461Y000541D01*
X002421Y000501D01*
X002301Y000501D01*
X001411Y002961D02*
X000911Y002961D01*
X000911Y003961D02*
X001411Y003961D01*
X001411Y005961D02*
X000911Y005961D01*
X000911Y006961D02*
X001411Y006961D01*
X001411Y008961D02*
X000911Y008961D01*
X000911Y009961D02*
X001411Y009961D01*
X001411Y011961D02*
X000911Y011961D01*
X000911Y012961D02*
X001411Y012961D01*
X001901Y013341D02*
X001941Y013301D01*
X002021Y013301D01*
X002061Y013341D01*
X002061Y013501D01*
X001901Y013341D01*
X001901Y013501D01*
X001941Y013541D01*
X002021Y013541D01*
X002061Y013501D01*
X002196Y013341D02*
X002196Y013301D01*
X002236Y013301D01*
X002236Y013341D01*
X002196Y013341D01*
X002343Y013301D02*
X002503Y013301D01*
X002423Y013301D02*
X002423Y013541D01*
X002343Y013461D01*
X002638Y013421D02*
X002758Y013421D01*
X002798Y013381D01*
X002798Y013341D01*
X002758Y013301D01*
X002678Y013301D01*
X002638Y013341D01*
X002638Y013421D01*
X002718Y013501D01*
X002798Y013541D01*
X003051Y013811D02*
X003051Y013971D01*
X003104Y014025D01*
X003211Y014025D01*
X003265Y013971D01*
X003265Y013811D01*
X003371Y013811D02*
X003051Y013811D01*
X003265Y013918D02*
X003371Y014025D01*
X003371Y014180D02*
X003371Y014393D01*
X003371Y014286D02*
X003051Y014286D01*
X003158Y014180D01*
X002798Y014341D02*
X002758Y014301D01*
X002678Y014301D01*
X002638Y014341D01*
X002638Y014421D02*
X002718Y014461D01*
X002758Y014461D01*
X002798Y014421D01*
X002798Y014341D01*
X002638Y014421D02*
X002638Y014541D01*
X002798Y014541D01*
X002503Y014301D02*
X002343Y014301D01*
X002423Y014301D02*
X002423Y014541D01*
X002343Y014461D01*
X002236Y014341D02*
X002236Y014301D01*
X002196Y014301D01*
X002196Y014341D01*
X002236Y014341D01*
X002061Y014341D02*
X002021Y014301D01*
X001941Y014301D01*
X001901Y014341D01*
X002061Y014501D01*
X002061Y014341D01*
X001901Y014341D02*
X001901Y014501D01*
X001941Y014541D01*
X002021Y014541D01*
X002061Y014501D01*
X002061Y015301D02*
X001981Y015381D01*
X002021Y015381D02*
X001901Y015381D01*
X001901Y015301D02*
X001901Y015541D01*
X002021Y015541D01*
X002061Y015501D01*
X002061Y015421D01*
X002021Y015381D01*
X002196Y015341D02*
X002236Y015301D01*
X002316Y015301D01*
X002356Y015341D01*
X002356Y015381D01*
X002316Y015421D01*
X002236Y015421D01*
X002196Y015461D01*
X002196Y015501D01*
X002236Y015541D01*
X002316Y015541D01*
X002356Y015501D01*
X002491Y015541D02*
X002651Y015541D01*
X002571Y015541D02*
X002571Y015301D01*
X002745Y015701D02*
X001861Y015701D01*
X001411Y015961D02*
X000911Y015961D01*
X000911Y014961D02*
X001411Y014961D01*
X001941Y016401D02*
X001901Y016441D01*
X001941Y016401D02*
X002021Y016401D01*
X002061Y016441D01*
X002061Y016481D01*
X002021Y016521D01*
X001981Y016521D01*
X002021Y016521D02*
X002061Y016561D01*
X002061Y016601D01*
X002021Y016641D01*
X001941Y016641D01*
X001901Y016601D01*
X002196Y016441D02*
X002236Y016441D01*
X002236Y016401D01*
X002196Y016401D01*
X002196Y016441D01*
X002343Y016441D02*
X002383Y016401D01*
X002463Y016401D01*
X002503Y016441D01*
X002503Y016481D01*
X002463Y016521D01*
X002423Y016521D01*
X002463Y016521D02*
X002503Y016561D01*
X002503Y016601D01*
X002463Y016641D01*
X002383Y016641D01*
X002343Y016601D01*
X002638Y016641D02*
X002638Y016481D01*
X002718Y016401D01*
X002798Y016481D01*
X002798Y016641D01*
X002552Y017301D02*
X002552Y017541D01*
X002392Y017541D02*
X002392Y017301D01*
X002276Y017301D02*
X002196Y017301D01*
X002236Y017301D02*
X002236Y017541D01*
X002196Y017541D02*
X002276Y017541D01*
X002392Y017541D02*
X002552Y017301D01*
X002061Y017381D02*
X002061Y017541D01*
X002061Y017381D02*
X001981Y017301D01*
X001901Y017381D01*
X001901Y017541D01*
X001941Y018301D02*
X002021Y018301D01*
X002061Y018341D01*
X002061Y018421D01*
X001981Y018421D01*
X001901Y018341D02*
X001941Y018301D01*
X001901Y018341D02*
X001901Y018501D01*
X001941Y018541D01*
X002021Y018541D01*
X002061Y018501D01*
X002196Y018541D02*
X002196Y018301D01*
X002356Y018301D02*
X002356Y018541D01*
X002491Y018541D02*
X002611Y018541D01*
X002651Y018501D01*
X002651Y018341D01*
X002611Y018301D01*
X002491Y018301D01*
X002491Y018541D01*
X002356Y018301D02*
X002196Y018541D01*
X001411Y017961D02*
X000911Y017961D01*
X003468Y017873D02*
X003468Y018188D01*
X004374Y018188D01*
X005161Y018188D01*
X005949Y018188D01*
X006854Y018188D01*
X006854Y017873D01*
X006854Y016849D02*
X006854Y016534D01*
X003468Y016534D01*
X003468Y016849D01*
X004405Y015371D02*
X004351Y015318D01*
X004351Y015105D01*
X004405Y015051D01*
X004511Y015051D01*
X004565Y015105D01*
X004720Y015105D02*
X004773Y015051D01*
X004880Y015051D01*
X004933Y015105D01*
X004933Y015211D01*
X004880Y015265D01*
X004826Y015265D01*
X004720Y015211D01*
X004720Y015371D01*
X004933Y015371D01*
X005125Y015986D02*
X005055Y016056D01*
X005055Y016336D01*
X005125Y016406D01*
X005265Y016406D01*
X005336Y016336D01*
X005336Y016196D02*
X005195Y016196D01*
X005336Y016056D02*
X005265Y015986D01*
X005125Y015986D01*
X005336Y016056D02*
X005336Y016196D01*
X005516Y015986D02*
X005516Y016406D01*
X005656Y016266D01*
X005796Y016406D01*
X005796Y015986D01*
X005811Y015471D02*
X005651Y015471D01*
X005651Y015151D01*
X005651Y015258D02*
X005811Y015258D01*
X005865Y015311D01*
X005865Y015418D01*
X005811Y015471D01*
X005758Y015258D02*
X005865Y015151D01*
X006020Y015205D02*
X006020Y015258D01*
X006073Y015311D01*
X006180Y015311D01*
X006233Y015258D01*
X006233Y015205D01*
X006180Y015151D01*
X006073Y015151D01*
X006020Y015205D01*
X006073Y015311D02*
X006020Y015365D01*
X006020Y015418D01*
X006073Y015471D01*
X006180Y015471D01*
X006233Y015418D01*
X006233Y015365D01*
X006180Y015311D01*
X007470Y015421D02*
X007630Y015581D01*
X007630Y015421D01*
X007590Y015381D01*
X007510Y015381D01*
X007470Y015421D01*
X007470Y015581D01*
X007510Y015621D01*
X007590Y015621D01*
X007630Y015581D01*
X007765Y015421D02*
X007805Y015421D01*
X007805Y015381D01*
X007765Y015381D01*
X007765Y015421D01*
X007912Y015381D02*
X008072Y015541D01*
X008072Y015581D01*
X008032Y015621D01*
X007952Y015621D01*
X007912Y015581D01*
X007912Y015381D02*
X008072Y015381D01*
X008207Y015421D02*
X008247Y015381D01*
X008327Y015381D01*
X008367Y015421D01*
X008367Y015501D01*
X008327Y015541D01*
X008287Y015541D01*
X008207Y015501D01*
X008207Y015621D01*
X008367Y015621D01*
X008327Y016381D02*
X008367Y016421D01*
X008367Y016461D01*
X008327Y016501D01*
X008207Y016501D01*
X008207Y016421D01*
X008247Y016381D01*
X008327Y016381D01*
X008207Y016501D02*
X008287Y016581D01*
X008367Y016621D01*
X008072Y016581D02*
X008032Y016621D01*
X007952Y016621D01*
X007912Y016581D01*
X008072Y016541D02*
X007912Y016381D01*
X008072Y016381D01*
X008072Y016541D02*
X008072Y016581D01*
X007805Y016421D02*
X007805Y016381D01*
X007765Y016381D01*
X007765Y016421D01*
X007805Y016421D01*
X007630Y016421D02*
X007630Y016581D01*
X007470Y016421D01*
X007510Y016381D01*
X007590Y016381D01*
X007630Y016421D01*
X007630Y016581D02*
X007590Y016621D01*
X007510Y016621D01*
X007470Y016581D01*
X007470Y016421D01*
X007510Y017381D02*
X007470Y017421D01*
X007630Y017581D01*
X007630Y017421D01*
X007590Y017381D01*
X007510Y017381D01*
X007470Y017421D02*
X007470Y017581D01*
X007510Y017621D01*
X007590Y017621D01*
X007630Y017581D01*
X007765Y017421D02*
X007805Y017421D01*
X007805Y017381D01*
X007765Y017381D01*
X007765Y017421D01*
X007912Y017381D02*
X008072Y017381D01*
X007992Y017381D02*
X007992Y017621D01*
X007912Y017541D01*
X008207Y017581D02*
X008247Y017621D01*
X008327Y017621D01*
X008367Y017581D01*
X008367Y017541D01*
X008327Y017501D01*
X008367Y017461D01*
X008367Y017421D01*
X008327Y017381D01*
X008247Y017381D01*
X008207Y017421D01*
X008287Y017501D02*
X008327Y017501D01*
X008327Y018381D02*
X008327Y018621D01*
X008207Y018501D01*
X008367Y018501D01*
X008072Y018381D02*
X007912Y018381D01*
X007992Y018381D02*
X007992Y018621D01*
X007912Y018541D01*
X007805Y018421D02*
X007805Y018381D01*
X007765Y018381D01*
X007765Y018421D01*
X007805Y018421D01*
X007630Y018421D02*
X007630Y018581D01*
X007470Y018421D01*
X007510Y018381D01*
X007590Y018381D01*
X007630Y018421D01*
X007630Y018581D02*
X007590Y018621D01*
X007510Y018621D01*
X007470Y018581D01*
X007470Y018421D01*
X008911Y017961D02*
X009411Y017961D01*
X009411Y015961D02*
X008911Y015961D01*
X008911Y014961D02*
X009411Y014961D01*
X008367Y014581D02*
X008327Y014621D01*
X008247Y014621D01*
X008207Y014581D01*
X008367Y014541D02*
X008207Y014381D01*
X008367Y014381D01*
X008367Y014541D02*
X008367Y014581D01*
X008072Y014381D02*
X007912Y014381D01*
X007992Y014381D02*
X007992Y014621D01*
X007912Y014541D01*
X007805Y014421D02*
X007805Y014381D01*
X007765Y014381D01*
X007765Y014421D01*
X007805Y014421D01*
X007630Y014421D02*
X007630Y014581D01*
X007470Y014421D01*
X007510Y014381D01*
X007590Y014381D01*
X007630Y014421D01*
X007630Y014581D02*
X007590Y014621D01*
X007510Y014621D01*
X007470Y014581D01*
X007470Y014421D01*
X007510Y013621D02*
X007470Y013581D01*
X007470Y013421D01*
X007630Y013581D01*
X007630Y013421D01*
X007590Y013381D01*
X007510Y013381D01*
X007470Y013421D01*
X007510Y013621D02*
X007590Y013621D01*
X007630Y013581D01*
X007765Y013421D02*
X007805Y013421D01*
X007805Y013381D01*
X007765Y013381D01*
X007765Y013421D01*
X007912Y013381D02*
X008072Y013381D01*
X007992Y013381D02*
X007992Y013621D01*
X007912Y013541D01*
X008207Y013541D02*
X008287Y013621D01*
X008287Y013381D01*
X008207Y013381D02*
X008367Y013381D01*
X008911Y012961D02*
X009411Y012961D01*
X009411Y009961D02*
X008911Y009961D01*
X004805Y016126D02*
X004595Y016126D01*
X004595Y015986D02*
X004595Y016406D01*
X004805Y016406D01*
X004875Y016336D01*
X004875Y016196D01*
X004805Y016126D01*
X004511Y015371D02*
X004405Y015371D01*
X004511Y015371D02*
X004565Y015318D01*
X005161Y018188D02*
X005949Y018188D01*
D15*
X004940Y014432D03*
X004940Y013891D03*
D16*
X005092Y014161D03*
D17*
X003476Y006661D03*
X003476Y006261D03*
D18*
X003861Y013409D03*
D19*
X004461Y015961D02*
X003861Y016221D01*
X004461Y016461D01*
X004331Y016221D01*
X004461Y015961D01*
D20*
X004461Y015962D02*
X004461Y015962D01*
X004461Y015963D02*
X004458Y015963D01*
X004456Y015963D02*
X004460Y015963D01*
X004460Y015964D02*
X004454Y015964D01*
X004452Y015965D02*
X004459Y015965D01*
X004459Y015966D02*
X004450Y015966D01*
X004447Y015967D02*
X004458Y015967D01*
X004458Y015968D02*
X004445Y015968D01*
X004443Y015969D02*
X004457Y015969D01*
X004457Y015970D02*
X004441Y015970D01*
X004439Y015971D02*
X004456Y015971D01*
X004456Y015972D02*
X004437Y015972D01*
X004434Y015973D02*
X004455Y015973D01*
X004455Y015974D02*
X004432Y015974D01*
X004430Y015975D02*
X004454Y015975D01*
X004454Y015976D02*
X004428Y015976D01*
X004426Y015977D02*
X004454Y015977D01*
X004453Y015978D02*
X004423Y015978D01*
X004421Y015979D02*
X004453Y015979D01*
X004452Y015980D02*
X004419Y015980D01*
X004417Y015980D02*
X004452Y015980D01*
X004451Y015981D02*
X004415Y015981D01*
X004413Y015982D02*
X004451Y015982D01*
X004450Y015983D02*
X004410Y015983D01*
X004408Y015984D02*
X004450Y015984D01*
X004449Y015985D02*
X004406Y015985D01*
X004404Y015986D02*
X004449Y015986D01*
X004448Y015987D02*
X004402Y015987D01*
X004399Y015988D02*
X004448Y015988D01*
X004447Y015989D02*
X004397Y015989D01*
X004395Y015990D02*
X004447Y015990D01*
X004446Y015991D02*
X004393Y015991D01*
X004391Y015992D02*
X004446Y015992D01*
X004446Y015993D02*
X004389Y015993D01*
X004386Y015994D02*
X004445Y015994D01*
X004445Y015995D02*
X004384Y015995D01*
X004382Y015996D02*
X004444Y015996D01*
X004444Y015997D02*
X004380Y015997D01*
X004378Y015997D02*
X004443Y015997D01*
X004443Y015998D02*
X004376Y015998D01*
X004373Y015999D02*
X004442Y015999D01*
X004442Y016000D02*
X004371Y016000D01*
X004369Y016001D02*
X004441Y016001D01*
X004441Y016002D02*
X004367Y016002D01*
X004365Y016003D02*
X004440Y016003D01*
X004440Y016004D02*
X004362Y016004D01*
X004360Y016005D02*
X004439Y016005D01*
X004439Y016006D02*
X004358Y016006D01*
X004356Y016007D02*
X004438Y016007D01*
X004438Y016008D02*
X004354Y016008D01*
X004352Y016009D02*
X004437Y016009D01*
X004437Y016010D02*
X004349Y016010D01*
X004347Y016011D02*
X004437Y016011D01*
X004436Y016012D02*
X004345Y016012D01*
X004343Y016013D02*
X004436Y016013D01*
X004435Y016014D02*
X004341Y016014D01*
X004338Y016014D02*
X004435Y016014D01*
X004434Y016015D02*
X004336Y016015D01*
X004334Y016016D02*
X004434Y016016D01*
X004433Y016017D02*
X004332Y016017D01*
X004330Y016018D02*
X004433Y016018D01*
X004432Y016019D02*
X004328Y016019D01*
X004325Y016020D02*
X004432Y016020D01*
X004431Y016021D02*
X004323Y016021D01*
X004321Y016022D02*
X004431Y016022D01*
X004430Y016023D02*
X004319Y016023D01*
X004317Y016024D02*
X004430Y016024D01*
X004429Y016025D02*
X004314Y016025D01*
X004312Y016026D02*
X004429Y016026D01*
X004429Y016027D02*
X004310Y016027D01*
X004308Y016028D02*
X004428Y016028D01*
X004428Y016029D02*
X004306Y016029D01*
X004304Y016030D02*
X004427Y016030D01*
X004427Y016031D02*
X004301Y016031D01*
X004299Y016031D02*
X004426Y016031D01*
X004426Y016032D02*
X004297Y016032D01*
X004295Y016033D02*
X004425Y016033D01*
X004425Y016034D02*
X004293Y016034D01*
X004290Y016035D02*
X004424Y016035D01*
X004424Y016036D02*
X004288Y016036D01*
X004286Y016037D02*
X004423Y016037D01*
X004423Y016038D02*
X004284Y016038D01*
X004282Y016039D02*
X004422Y016039D01*
X004422Y016040D02*
X004280Y016040D01*
X004277Y016041D02*
X004421Y016041D01*
X004421Y016042D02*
X004275Y016042D01*
X004273Y016043D02*
X004420Y016043D01*
X004420Y016044D02*
X004271Y016044D01*
X004269Y016045D02*
X004420Y016045D01*
X004419Y016046D02*
X004266Y016046D01*
X004264Y016047D02*
X004419Y016047D01*
X004418Y016048D02*
X004262Y016048D01*
X004260Y016049D02*
X004418Y016049D01*
X004417Y016049D02*
X004258Y016049D01*
X004256Y016050D02*
X004417Y016050D01*
X004416Y016051D02*
X004253Y016051D01*
X004251Y016052D02*
X004416Y016052D01*
X004415Y016053D02*
X004249Y016053D01*
X004247Y016054D02*
X004415Y016054D01*
X004414Y016055D02*
X004245Y016055D01*
X004243Y016056D02*
X004414Y016056D01*
X004413Y016057D02*
X004240Y016057D01*
X004238Y016058D02*
X004413Y016058D01*
X004412Y016059D02*
X004236Y016059D01*
X004234Y016060D02*
X004412Y016060D01*
X004411Y016061D02*
X004232Y016061D01*
X004229Y016062D02*
X004411Y016062D01*
X004411Y016063D02*
X004227Y016063D01*
X004225Y016064D02*
X004410Y016064D01*
X004410Y016065D02*
X004223Y016065D01*
X004221Y016066D02*
X004409Y016066D01*
X004219Y016066D01*
X004216Y016067D02*
X004408Y016067D01*
X004408Y016068D02*
X004214Y016068D01*
X004212Y016069D02*
X004407Y016069D01*
X004407Y016070D02*
X004210Y016070D01*
X004208Y016071D02*
X004406Y016071D01*
X004406Y016072D02*
X004205Y016072D01*
X004203Y016073D02*
X004405Y016073D01*
X004405Y016074D02*
X004201Y016074D01*
X004199Y016075D02*
X004404Y016075D01*
X004404Y016076D02*
X004197Y016076D01*
X004195Y016077D02*
X004403Y016077D01*
X004403Y016078D02*
X004192Y016078D01*
X004190Y016079D02*
X004403Y016079D01*
X004402Y016080D02*
X004188Y016080D01*
X004186Y016081D02*
X004402Y016081D01*
X004401Y016082D02*
X004184Y016082D01*
X004181Y016083D02*
X004401Y016083D01*
X004400Y016083D02*
X004179Y016083D01*
X004177Y016084D02*
X004400Y016084D01*
X004399Y016085D02*
X004175Y016085D01*
X004173Y016086D02*
X004399Y016086D01*
X004398Y016087D02*
X004171Y016087D01*
X004168Y016088D02*
X004398Y016088D01*
X004397Y016089D02*
X004166Y016089D01*
X004164Y016090D02*
X004397Y016090D01*
X004396Y016091D02*
X004162Y016091D01*
X004160Y016092D02*
X004396Y016092D01*
X004395Y016093D02*
X004157Y016093D01*
X004155Y016094D02*
X004395Y016094D01*
X004394Y016095D02*
X004153Y016095D01*
X004151Y016096D02*
X004394Y016096D01*
X004394Y016097D02*
X004149Y016097D01*
X004147Y016098D02*
X004393Y016098D01*
X004393Y016099D02*
X004144Y016099D01*
X004142Y016100D02*
X004392Y016100D01*
X004140Y016100D01*
X004138Y016101D02*
X004391Y016101D01*
X004391Y016102D02*
X004136Y016102D01*
X004133Y016103D02*
X004390Y016103D01*
X004390Y016104D02*
X004131Y016104D01*
X004129Y016105D02*
X004389Y016105D01*
X004389Y016106D02*
X004127Y016106D01*
X004125Y016107D02*
X004388Y016107D01*
X004388Y016108D02*
X004123Y016108D01*
X004120Y016109D02*
X004387Y016109D01*
X004387Y016110D02*
X004118Y016110D01*
X004116Y016111D02*
X004386Y016111D01*
X004386Y016112D02*
X004114Y016112D01*
X004112Y016113D02*
X004386Y016113D01*
X004385Y016114D02*
X004109Y016114D01*
X004107Y016115D02*
X004385Y016115D01*
X004384Y016116D02*
X004105Y016116D01*
X004103Y016117D02*
X004384Y016117D01*
X004383Y016117D02*
X004101Y016117D01*
X004099Y016118D02*
X004383Y016118D01*
X004382Y016119D02*
X004096Y016119D01*
X004094Y016120D02*
X004382Y016120D01*
X004381Y016121D02*
X004092Y016121D01*
X004090Y016122D02*
X004381Y016122D01*
X004380Y016123D02*
X004088Y016123D01*
X004086Y016124D02*
X004380Y016124D01*
X004379Y016125D02*
X004083Y016125D01*
X004081Y016126D02*
X004379Y016126D01*
X004378Y016127D02*
X004079Y016127D01*
X004077Y016128D02*
X004378Y016128D01*
X004377Y016129D02*
X004075Y016129D01*
X004072Y016130D02*
X004377Y016130D01*
X004377Y016131D02*
X004070Y016131D01*
X004068Y016132D02*
X004376Y016132D01*
X004376Y016133D02*
X004066Y016133D01*
X004064Y016134D02*
X004375Y016134D01*
X004062Y016134D01*
X004059Y016135D02*
X004374Y016135D01*
X004374Y016136D02*
X004057Y016136D01*
X004055Y016137D02*
X004373Y016137D01*
X004373Y016138D02*
X004053Y016138D01*
X004051Y016139D02*
X004372Y016139D01*
X004372Y016140D02*
X004048Y016140D01*
X004046Y016141D02*
X004371Y016141D01*
X004371Y016142D02*
X004044Y016142D01*
X004042Y016143D02*
X004370Y016143D01*
X004370Y016144D02*
X004040Y016144D01*
X004038Y016145D02*
X004369Y016145D01*
X004369Y016146D02*
X004035Y016146D01*
X004033Y016147D02*
X004369Y016147D01*
X004368Y016148D02*
X004031Y016148D01*
X004029Y016149D02*
X004368Y016149D01*
X004367Y016150D02*
X004027Y016150D01*
X004024Y016151D02*
X004367Y016151D01*
X004366Y016151D02*
X004022Y016151D01*
X004020Y016152D02*
X004366Y016152D01*
X004365Y016153D02*
X004018Y016153D01*
X004016Y016154D02*
X004365Y016154D01*
X004364Y016155D02*
X004014Y016155D01*
X004011Y016156D02*
X004364Y016156D01*
X004363Y016157D02*
X004009Y016157D01*
X004007Y016158D02*
X004363Y016158D01*
X004362Y016159D02*
X004005Y016159D01*
X004003Y016160D02*
X004362Y016160D01*
X004361Y016161D02*
X004000Y016161D01*
X003998Y016162D02*
X004361Y016162D01*
X004360Y016163D02*
X003996Y016163D01*
X003994Y016164D02*
X004360Y016164D01*
X004360Y016165D02*
X003992Y016165D01*
X003990Y016166D02*
X004359Y016166D01*
X004359Y016167D02*
X003987Y016167D01*
X003985Y016168D02*
X004358Y016168D01*
X004358Y016169D02*
X003983Y016169D01*
X003981Y016169D02*
X004357Y016169D01*
X004357Y016170D02*
X003979Y016170D01*
X003976Y016171D02*
X004356Y016171D01*
X004356Y016172D02*
X003974Y016172D01*
X003972Y016173D02*
X004355Y016173D01*
X004355Y016174D02*
X003970Y016174D01*
X003968Y016175D02*
X004354Y016175D01*
X004354Y016176D02*
X003966Y016176D01*
X003963Y016177D02*
X004353Y016177D01*
X004353Y016178D02*
X003961Y016178D01*
X003959Y016179D02*
X004352Y016179D01*
X004352Y016180D02*
X003957Y016180D01*
X003955Y016181D02*
X004351Y016181D01*
X004351Y016182D02*
X003952Y016182D01*
X003950Y016183D02*
X004351Y016183D01*
X004350Y016184D02*
X003948Y016184D01*
X003946Y016185D02*
X004350Y016185D01*
X004349Y016186D02*
X003944Y016186D01*
X003942Y016186D02*
X004349Y016186D01*
X004348Y016187D02*
X003939Y016187D01*
X003937Y016188D02*
X004348Y016188D01*
X004347Y016189D02*
X003935Y016189D01*
X003933Y016190D02*
X004347Y016190D01*
X004346Y016191D02*
X003931Y016191D01*
X003929Y016192D02*
X004346Y016192D01*
X004345Y016193D02*
X003926Y016193D01*
X003924Y016194D02*
X004345Y016194D01*
X004344Y016195D02*
X003922Y016195D01*
X003920Y016196D02*
X004344Y016196D01*
X004343Y016197D02*
X003918Y016197D01*
X003915Y016198D02*
X004343Y016198D01*
X004343Y016199D02*
X003913Y016199D01*
X003911Y016200D02*
X004342Y016200D01*
X004342Y016201D02*
X003909Y016201D01*
X003907Y016202D02*
X004341Y016202D01*
X004341Y016203D02*
X003905Y016203D01*
X003902Y016203D02*
X004340Y016203D01*
X004340Y016204D02*
X003900Y016204D01*
X003898Y016205D02*
X004339Y016205D01*
X004339Y016206D02*
X003896Y016206D01*
X003894Y016207D02*
X004338Y016207D01*
X004338Y016208D02*
X003891Y016208D01*
X003889Y016209D02*
X004337Y016209D01*
X004337Y016210D02*
X003887Y016210D01*
X003885Y016211D02*
X004336Y016211D01*
X004336Y016212D02*
X003883Y016212D01*
X003881Y016213D02*
X004335Y016213D01*
X004335Y016214D02*
X003878Y016214D01*
X003876Y016215D02*
X004334Y016215D01*
X004334Y016216D02*
X003874Y016216D01*
X003872Y016217D02*
X004334Y016217D01*
X004333Y016218D02*
X003870Y016218D01*
X003867Y016219D02*
X004333Y016219D01*
X004332Y016220D02*
X003865Y016220D01*
X003863Y016220D02*
X004332Y016220D01*
X004331Y016221D02*
X003862Y016221D01*
X003864Y016222D02*
X004332Y016222D01*
X004332Y016223D02*
X003866Y016223D01*
X003869Y016224D02*
X004333Y016224D01*
X004333Y016225D02*
X003871Y016225D01*
X003873Y016226D02*
X004334Y016226D01*
X004334Y016227D02*
X003876Y016227D01*
X003878Y016228D02*
X004335Y016228D01*
X004335Y016229D02*
X003881Y016229D01*
X003883Y016230D02*
X004336Y016230D01*
X004336Y016231D02*
X003885Y016231D01*
X003888Y016232D02*
X004337Y016232D01*
X004338Y016233D02*
X003890Y016233D01*
X003892Y016234D02*
X004338Y016234D01*
X004339Y016235D02*
X003895Y016235D01*
X003897Y016236D02*
X004339Y016236D01*
X004340Y016237D02*
X003899Y016237D01*
X003902Y016237D02*
X004340Y016237D01*
X004341Y016238D02*
X003904Y016238D01*
X003907Y016239D02*
X004341Y016239D01*
X004342Y016240D02*
X003909Y016240D01*
X003911Y016241D02*
X004342Y016241D01*
X004343Y016242D02*
X003914Y016242D01*
X003916Y016243D02*
X004343Y016243D01*
X004344Y016244D02*
X003918Y016244D01*
X003921Y016245D02*
X004344Y016245D01*
X004345Y016246D02*
X003923Y016246D01*
X003925Y016247D02*
X004345Y016247D01*
X004346Y016248D02*
X003928Y016248D01*
X003930Y016249D02*
X004346Y016249D01*
X004347Y016250D02*
X003933Y016250D01*
X003935Y016251D02*
X004347Y016251D01*
X004348Y016252D02*
X003937Y016252D01*
X003940Y016253D02*
X004348Y016253D01*
X004349Y016254D02*
X003942Y016254D01*
X003944Y016254D02*
X004349Y016254D01*
X004350Y016255D02*
X003947Y016255D01*
X003949Y016256D02*
X004350Y016256D01*
X004351Y016257D02*
X003951Y016257D01*
X003954Y016258D02*
X004351Y016258D01*
X004352Y016259D02*
X003956Y016259D01*
X003959Y016260D02*
X004352Y016260D01*
X004353Y016261D02*
X003961Y016261D01*
X003963Y016262D02*
X004353Y016262D01*
X004354Y016263D02*
X003966Y016263D01*
X003968Y016264D02*
X004354Y016264D01*
X004355Y016265D02*
X003970Y016265D01*
X003973Y016266D02*
X004355Y016266D01*
X004356Y016267D02*
X003975Y016267D01*
X003977Y016268D02*
X004356Y016268D01*
X004357Y016269D02*
X003980Y016269D01*
X003982Y016270D02*
X004357Y016270D01*
X004358Y016271D02*
X003984Y016271D01*
X003987Y016271D02*
X004359Y016271D01*
X004359Y016272D02*
X003989Y016272D01*
X003992Y016273D02*
X004360Y016273D01*
X004360Y016274D02*
X003994Y016274D01*
X003996Y016275D02*
X004361Y016275D01*
X004361Y016276D02*
X003999Y016276D01*
X004001Y016277D02*
X004362Y016277D01*
X004362Y016278D02*
X004003Y016278D01*
X004006Y016279D02*
X004363Y016279D01*
X004363Y016280D02*
X004008Y016280D01*
X004010Y016281D02*
X004364Y016281D01*
X004364Y016282D02*
X004013Y016282D01*
X004015Y016283D02*
X004365Y016283D01*
X004365Y016284D02*
X004018Y016284D01*
X004020Y016285D02*
X004366Y016285D01*
X004366Y016286D02*
X004022Y016286D01*
X004025Y016287D02*
X004367Y016287D01*
X004367Y016288D02*
X004027Y016288D01*
X004029Y016289D02*
X004368Y016289D01*
X004032Y016289D01*
X004034Y016290D02*
X004369Y016290D01*
X004369Y016291D02*
X004036Y016291D01*
X004039Y016292D02*
X004370Y016292D01*
X004370Y016293D02*
X004041Y016293D01*
X004044Y016294D02*
X004371Y016294D01*
X004371Y016295D02*
X004046Y016295D01*
X004048Y016296D02*
X004372Y016296D01*
X004372Y016297D02*
X004051Y016297D01*
X004053Y016298D02*
X004373Y016298D01*
X004373Y016299D02*
X004055Y016299D01*
X004058Y016300D02*
X004374Y016300D01*
X004374Y016301D02*
X004060Y016301D01*
X004062Y016302D02*
X004375Y016302D01*
X004375Y016303D02*
X004065Y016303D01*
X004067Y016304D02*
X004376Y016304D01*
X004376Y016305D02*
X004070Y016305D01*
X004072Y016306D02*
X004377Y016306D01*
X004074Y016306D01*
X004077Y016307D02*
X004378Y016307D01*
X004378Y016308D02*
X004079Y016308D01*
X004081Y016309D02*
X004379Y016309D01*
X004379Y016310D02*
X004084Y016310D01*
X004086Y016311D02*
X004380Y016311D01*
X004381Y016312D02*
X004088Y016312D01*
X004091Y016313D02*
X004381Y016313D01*
X004382Y016314D02*
X004093Y016314D01*
X004096Y016315D02*
X004382Y016315D01*
X004383Y016316D02*
X004098Y016316D01*
X004100Y016317D02*
X004383Y016317D01*
X004384Y016318D02*
X004103Y016318D01*
X004105Y016319D02*
X004384Y016319D01*
X004385Y016320D02*
X004107Y016320D01*
X004110Y016321D02*
X004385Y016321D01*
X004386Y016322D02*
X004112Y016322D01*
X004114Y016323D02*
X004386Y016323D01*
X004387Y016323D02*
X004117Y016323D01*
X004119Y016324D02*
X004387Y016324D01*
X004388Y016325D02*
X004121Y016325D01*
X004124Y016326D02*
X004388Y016326D01*
X004389Y016327D02*
X004126Y016327D01*
X004129Y016328D02*
X004389Y016328D01*
X004390Y016329D02*
X004131Y016329D01*
X004133Y016330D02*
X004390Y016330D01*
X004391Y016331D02*
X004136Y016331D01*
X004138Y016332D02*
X004391Y016332D01*
X004392Y016333D02*
X004140Y016333D01*
X004143Y016334D02*
X004392Y016334D01*
X004393Y016335D02*
X004145Y016335D01*
X004147Y016336D02*
X004393Y016336D01*
X004394Y016337D02*
X004150Y016337D01*
X004152Y016338D02*
X004394Y016338D01*
X004395Y016339D02*
X004155Y016339D01*
X004157Y016340D02*
X004395Y016340D01*
X004396Y016340D02*
X004159Y016340D01*
X004162Y016341D02*
X004396Y016341D01*
X004397Y016342D02*
X004164Y016342D01*
X004166Y016343D02*
X004397Y016343D01*
X004398Y016344D02*
X004169Y016344D01*
X004171Y016345D02*
X004398Y016345D01*
X004399Y016346D02*
X004173Y016346D01*
X004176Y016347D02*
X004399Y016347D01*
X004400Y016348D02*
X004178Y016348D01*
X004181Y016349D02*
X004400Y016349D01*
X004401Y016350D02*
X004183Y016350D01*
X004185Y016351D02*
X004401Y016351D01*
X004402Y016352D02*
X004188Y016352D01*
X004190Y016353D02*
X004403Y016353D01*
X004403Y016354D02*
X004192Y016354D01*
X004195Y016355D02*
X004404Y016355D01*
X004404Y016356D02*
X004197Y016356D01*
X004199Y016357D02*
X004405Y016357D01*
X004202Y016357D01*
X004204Y016358D02*
X004406Y016358D01*
X004406Y016359D02*
X004207Y016359D01*
X004209Y016360D02*
X004407Y016360D01*
X004407Y016361D02*
X004211Y016361D01*
X004214Y016362D02*
X004408Y016362D01*
X004408Y016363D02*
X004216Y016363D01*
X004218Y016364D02*
X004409Y016364D01*
X004409Y016365D02*
X004221Y016365D01*
X004223Y016366D02*
X004410Y016366D01*
X004410Y016367D02*
X004225Y016367D01*
X004228Y016368D02*
X004411Y016368D01*
X004411Y016369D02*
X004230Y016369D01*
X004233Y016370D02*
X004412Y016370D01*
X004412Y016371D02*
X004235Y016371D01*
X004237Y016372D02*
X004413Y016372D01*
X004413Y016373D02*
X004240Y016373D01*
X004242Y016374D02*
X004414Y016374D01*
X004244Y016374D01*
X004247Y016375D02*
X004415Y016375D01*
X004415Y016376D02*
X004249Y016376D01*
X004251Y016377D02*
X004416Y016377D01*
X004416Y016378D02*
X004254Y016378D01*
X004256Y016379D02*
X004417Y016379D01*
X004417Y016380D02*
X004259Y016380D01*
X004261Y016381D02*
X004418Y016381D01*
X004418Y016382D02*
X004263Y016382D01*
X004266Y016383D02*
X004419Y016383D01*
X004419Y016384D02*
X004268Y016384D01*
X004270Y016385D02*
X004420Y016385D01*
X004420Y016386D02*
X004273Y016386D01*
X004275Y016387D02*
X004421Y016387D01*
X004421Y016388D02*
X004277Y016388D01*
X004280Y016389D02*
X004422Y016389D01*
X004422Y016390D02*
X004282Y016390D01*
X004284Y016391D02*
X004423Y016391D01*
X004424Y016391D02*
X004287Y016391D01*
X004289Y016392D02*
X004424Y016392D01*
X004425Y016393D02*
X004292Y016393D01*
X004294Y016394D02*
X004425Y016394D01*
X004426Y016395D02*
X004296Y016395D01*
X004299Y016396D02*
X004426Y016396D01*
X004427Y016397D02*
X004301Y016397D01*
X004303Y016398D02*
X004427Y016398D01*
X004428Y016399D02*
X004306Y016399D01*
X004308Y016400D02*
X004428Y016400D01*
X004429Y016401D02*
X004310Y016401D01*
X004313Y016402D02*
X004429Y016402D01*
X004430Y016403D02*
X004315Y016403D01*
X004318Y016404D02*
X004430Y016404D01*
X004431Y016405D02*
X004320Y016405D01*
X004322Y016406D02*
X004431Y016406D01*
X004432Y016407D02*
X004325Y016407D01*
X004327Y016408D02*
X004432Y016408D01*
X004433Y016409D02*
X004329Y016409D01*
X004332Y016409D02*
X004433Y016409D01*
X004434Y016410D02*
X004334Y016410D01*
X004336Y016411D02*
X004434Y016411D01*
X004435Y016412D02*
X004339Y016412D01*
X004341Y016413D02*
X004435Y016413D01*
X004436Y016414D02*
X004344Y016414D01*
X004346Y016415D02*
X004436Y016415D01*
X004437Y016416D02*
X004348Y016416D01*
X004351Y016417D02*
X004437Y016417D01*
X004438Y016418D02*
X004353Y016418D01*
X004355Y016419D02*
X004438Y016419D01*
X004439Y016420D02*
X004358Y016420D01*
X004360Y016421D02*
X004439Y016421D01*
X004440Y016422D02*
X004362Y016422D01*
X004365Y016423D02*
X004440Y016423D01*
X004441Y016424D02*
X004367Y016424D01*
X004370Y016425D02*
X004441Y016425D01*
X004442Y016426D02*
X004372Y016426D01*
X004374Y016426D02*
X004442Y016426D01*
X004443Y016427D02*
X004377Y016427D01*
X004379Y016428D02*
X004443Y016428D01*
X004444Y016429D02*
X004381Y016429D01*
X004384Y016430D02*
X004444Y016430D01*
X004445Y016431D02*
X004386Y016431D01*
X004388Y016432D02*
X004446Y016432D01*
X004446Y016433D02*
X004391Y016433D01*
X004393Y016434D02*
X004447Y016434D01*
X004447Y016435D02*
X004396Y016435D01*
X004398Y016436D02*
X004448Y016436D01*
X004448Y016437D02*
X004400Y016437D01*
X004403Y016438D02*
X004449Y016438D01*
X004449Y016439D02*
X004405Y016439D01*
X004407Y016440D02*
X004450Y016440D01*
X004450Y016441D02*
X004410Y016441D01*
X004412Y016442D02*
X004451Y016442D01*
X004451Y016443D02*
X004414Y016443D01*
X004417Y016443D02*
X004452Y016443D01*
X004452Y016444D02*
X004419Y016444D01*
X004421Y016445D02*
X004453Y016445D01*
X004453Y016446D02*
X004424Y016446D01*
X004426Y016447D02*
X004454Y016447D01*
X004454Y016448D02*
X004429Y016448D01*
X004431Y016449D02*
X004455Y016449D01*
X004455Y016450D02*
X004433Y016450D01*
X004436Y016451D02*
X004456Y016451D01*
X004456Y016452D02*
X004438Y016452D01*
X004440Y016453D02*
X004457Y016453D01*
X004457Y016454D02*
X004443Y016454D01*
X004445Y016455D02*
X004458Y016455D01*
X004458Y016456D02*
X004447Y016456D01*
X004450Y016457D02*
X004459Y016457D01*
X004459Y016458D02*
X004452Y016458D01*
X004455Y016459D02*
X004460Y016459D01*
X004460Y016460D02*
X004457Y016460D01*
X004459Y016460D02*
X004461Y016460D01*
M02*
